<svg width="86" height="123" viewBox="0 0 86 123" fill="none" xmlns="http://www.w3.org/2000/svg">
<path d="M85.4589 105.796C85.4589 105.796 83.5809 108.261 80.3729 111.326C77.4779 114.091 73.4999 117.338 68.8569 119.699C68.8439 119.699 68.8309 119.712 68.8309 119.712C62.8969 122.712 55.8549 124.251 48.5639 121.473C44.1949 106.984 37.0219 94.8811 35.5219 92.7551C29.5229 84.3301 22.5979 82.5821 18.0329 63.5411C18.0329 63.5411 16.9509 58.4161 11.6289 51.5431C6.29491 44.6831 1.67791 39.3101 0.347907 33.7281C0.073907 32.5671 -0.0300823 31.6151 0.00891771 30.8331V30.8201C0.139918 27.8341 2.29092 27.4421 4.63892 28.6551C7.58592 30.1941 18.9459 45.0611 20.3279 47.3051C20.7189 47.9441 21.5279 49.1701 22.5059 50.5911C24.9189 54.1511 28.2699 58.9511 28.2699 58.9511L46.0069 45.5571C46.0069 45.5571 40.7899 36.1021 39.5769 34.2241C38.3509 32.3461 37.6339 31.2241 36.7079 29.4121C35.7689 27.5991 30.6439 22.3961 28.2699 19.0571C25.8959 15.7181 21.3449 9.71914 20.1579 6.72014C19.2969 4.54214 19.4409 2.54714 20.4969 1.26914C20.8879 0.786137 21.4099 0.408138 22.0619 0.160138C24.4359 -0.739862 28.3349 2.22114 32.2339 7.34614C36.1339 12.4711 43.6589 20.8051 45.8499 24.4181C48.0279 28.0441 52.5399 35.8291 56.1789 39.4681C59.8179 43.1071 61.1739 44.7111 65.0209 45.8321C66.4559 45.5581 67.9029 44.9711 67.9029 44.9711C68.9859 29.7771 76.2239 25.2781 79.5489 23.8701C81.2699 23.1401 82.5089 23.3741 82.9789 24.4181C83.3699 25.2271 83.3049 26.5051 82.6789 28.2001C81.2179 32.1121 80.0049 41.3071 81.2569 53.2141C81.2569 57.4661 76.5099 61.2481 73.7189 65.4991C71.6839 68.6161 70.1849 72.0851 69.5329 75.5801C69.2979 76.8321 69.1679 78.0971 69.1679 79.3361C74.7249 85.4501 85.4589 105.796 85.4589 105.796Z" fill="url(#paint0_linear_6_229)"/>
<path d="M82.9809 24.4152C80.5939 22.7722 76.6169 26.5542 74.7259 30.0102C72.5999 33.8832 73.2909 34.6922 73.2909 34.6922C73.2909 34.6922 70.6039 40.0002 70.6039 44.6432C69.5999 47.9292 62.0489 46.1822 62.0489 46.1822L65.0219 45.8302C66.4569 45.5562 67.9039 44.9692 67.9039 44.9692C68.9869 29.7752 76.2249 25.2762 79.5499 23.8682C81.2719 23.1372 82.5109 23.3722 82.9809 24.4152Z" fill="url(#paint1_linear_6_229)"/>
<path d="M85.4589 105.796C85.4589 105.796 83.5809 108.261 80.3729 111.326C80.7379 106.918 80.6469 99.6801 77.1779 94.4241C71.8569 86.3381 68.6099 79.9351 61.4499 79.9351C63.3669 79.9351 67.0709 78.7611 69.5359 75.5791C69.3009 76.8311 69.1709 78.0961 69.1709 79.3351C74.7249 85.4501 85.4589 105.796 85.4589 105.796Z" fill="url(#paint2_linear_6_229)"/>
<path d="M68.8299 119.711C62.8959 122.711 55.8539 124.25 48.5629 121.472C44.1939 106.983 37.0209 94.8802 35.5209 92.7542C29.5219 84.3292 22.5969 82.5812 18.0319 63.5401C18.0319 63.5401 16.9499 58.4152 11.6279 51.5422C6.29391 44.6822 1.6769 39.3092 0.3469 33.7272C0.0728999 32.5662 -0.0310894 31.6142 0.00791063 30.8322C0.594911 33.5192 1.68991 36.0882 2.45991 37.5882C3.60791 39.8442 7.1029 41.3702 7.5199 43.3392C7.9239 45.3082 7.92391 46.4302 10.6629 47.7341C13.4149 49.0511 12.7629 49.6122 13.2579 51.9862C13.7539 54.3592 17.0919 55.9111 17.0919 57.3591C17.0919 58.7941 17.7829 61.3502 19.2179 62.0022C20.0269 67.6492 22.2179 71.0272 25.8429 77.7042C29.4549 84.3811 39.6539 86.8722 43.4099 83.1032C44.9229 84.6162 46.2139 84.6812 46.2139 84.6812C42.0539 95.8322 44.1269 104.817 50.1269 111.482C54.9799 116.881 60.9789 121.732 68.8299 119.711Z" fill="url(#paint3_linear_6_229)"/>
<path d="M45.6289 49.9252C45.6289 49.9252 45.7849 52.2332 44.5989 53.9162C43.4119 55.6112 39.0689 55.4812 36.9559 60.3192C33.2129 61.9362 26.9009 63.5402 26.9009 63.5402C26.9009 63.5402 31.3349 61.4142 31.7659 60.0062C32.2089 58.5982 28.1789 60.4762 28.1789 60.4762C28.1789 60.4762 23.8099 61.0632 21.7759 61.7802C25.5319 60.2542 24.9969 59.2632 23.5239 55.2982C23.0409 54.0072 22.7279 52.3382 22.5069 50.5902C24.9199 54.1502 28.2709 58.9502 28.2709 58.9502L46.0079 45.5562C46.0079 45.5562 40.7909 36.1012 39.5779 34.2232C38.3519 32.3452 37.6349 31.2232 36.7089 29.4112C35.7699 27.5982 30.6449 22.3952 28.2709 19.0562C25.8969 15.7172 21.3459 9.71819 20.1589 6.71919C19.2979 4.54119 19.4419 2.54619 20.4979 1.26819C20.2239 6.47219 23.6929 11.9492 26.7189 13.9052C30.2659 16.2132 27.9059 15.7182 31.3359 20.0872C34.7659 24.4562 34.5829 21.2742 36.7089 25.9562C38.8219 30.6382 38.1039 29.7902 40.5689 32.2552C43.0339 34.7202 43.6989 38.2542 44.9379 41.0582C46.1899 43.8752 48.4459 44.4882 49.5939 43.8362L45.6289 49.9252Z" fill="url(#paint4_linear_6_229)"/>
<path d="M37.2689 60.4101C36.4469 61.2191 32.9779 62.6661 29.6529 61.6621C26.3139 60.6581 23.2759 56.4191 22.7019 55.2451C22.1149 54.0841 19.5329 50.9671 19.5329 48.7111C19.5329 46.4681 20.2369 44.6421 21.0329 43.8461C22.0369 42.8421 23.2369 42.1381 23.2369 42.1381C23.2369 42.1381 23.6539 41.9681 24.4239 41.8901C25.2199 41.7861 26.4059 41.7731 27.9059 42.1381C30.2799 42.7121 35.0659 49.3631 37.0869 52.4931C37.5439 53.1971 37.8569 53.7061 37.9739 53.9541C38.6389 55.2981 38.0779 59.6021 37.2689 60.4101Z" fill="url(#paint5_linear_6_229)"/>
<path d="M42.1729 55.2981C37.5949 55.2981 36.6819 54.0851 33.9829 50.2511C31.2699 46.4301 28.2579 43.6521 27.8659 42.0091C27.1489 39.0621 28.2699 37.4181 28.8959 36.7921C29.5219 36.1661 31.7909 34.0011 33.0819 34.0011C33.4729 34.0011 34.1639 34.0791 35.0119 34.2491C36.9679 34.6401 39.7069 35.5401 41.2849 37.1181C42.7069 38.5401 44.7669 41.7481 46.2799 44.5911C47.1799 46.2861 47.8709 47.8381 48.1319 48.8041C48.7979 51.3331 46.7509 55.2981 42.1729 55.2981Z" fill="url(#paint6_linear_6_229)"/>
<path d="M41.7179 34.0012C42.2929 33.6842 42.8759 33.4302 43.4419 33.1402C44.0049 32.8462 44.5759 32.5822 45.1249 32.2742C45.6819 31.9832 46.2219 31.6652 46.7629 31.3442C47.2889 31.0052 47.8419 30.6882 48.2559 30.1952C48.0649 30.8452 47.5399 31.3172 47.0589 31.7482C46.5629 32.1832 46.0039 32.5322 45.4319 32.8482C44.2749 33.4532 43.0199 33.8802 41.7179 34.0012Z" fill="#E08172"/>
<path d="M35.6829 23.9961C36.0919 23.6981 36.5139 23.4671 36.9079 23.1991C37.2989 22.9291 37.6899 22.6781 38.0399 22.3801C38.4019 22.0951 38.7179 21.7651 39.0589 21.4281C39.3929 21.0901 39.7369 20.7081 40.1789 20.4551C39.9349 20.8951 39.7209 21.3151 39.4529 21.7391C39.1929 22.1661 38.8469 22.5551 38.4529 22.8841C37.6459 23.5241 36.6789 23.9041 35.6829 23.9961Z" fill="#E08172"/>
<path d="M28.1379 14.9321C28.5679 14.6611 28.9929 14.4501 29.3899 14.1841C29.7859 13.9221 30.1819 13.6721 30.5549 13.3841C31.3229 12.8341 32.0339 12.2241 32.8099 11.5901C32.4419 12.5351 31.7439 13.3081 30.9389 13.9101C30.1289 14.5011 29.1469 14.9111 28.1379 14.9321Z" fill="#E08172"/>
<path d="M71.6859 35.1061C72.4449 34.6171 73.3639 34.4461 74.2479 34.4501C74.6919 34.4641 75.1359 34.5031 75.5659 34.6181C75.9949 34.7271 76.4199 34.8661 76.8049 35.1061C75.9099 35.1431 75.0779 35.1041 74.2389 35.1021L72.9819 35.0921C72.5589 35.0861 72.1399 35.1201 71.6859 35.1061Z" fill="#E08172"/>
<path d="M37.2689 60.4101C36.4469 61.2191 32.9779 62.6661 29.6529 61.6621C26.3139 60.6581 23.2759 56.4191 22.7019 55.2451C22.1149 54.0841 19.5329 50.9671 19.5329 48.7111C19.5329 46.4681 20.2369 44.6421 21.0329 43.8461C22.0369 42.8421 23.2369 42.1381 23.2369 42.1381C23.2369 42.1381 23.6539 41.9681 24.4239 41.8901C21.6719 43.8981 21.1899 47.0021 22.8199 49.7151C24.6589 52.7541 29.9019 60.4091 32.9399 58.7011C35.4439 57.2921 37.3219 56.0801 37.0869 52.4931C37.5439 53.1971 37.8569 53.7061 37.9739 53.9541C38.6389 55.2981 38.0779 59.6021 37.2689 60.4101Z" fill="url(#paint7_linear_6_229)"/>
<path d="M42.1729 55.2981C37.5949 55.2981 36.6819 54.0851 33.9829 50.2511C31.2699 46.4301 28.2579 43.6521 27.8659 42.0091C27.1489 39.0621 28.2699 37.4181 28.8959 36.7921C29.5219 36.1661 31.7909 34.0011 33.0819 34.0011C33.4729 34.0011 34.1639 34.0791 35.0119 34.2491C28.5299 35.7751 27.4089 40.2611 31.7649 42.3481C36.3949 44.5521 38.9639 52.7941 41.4289 51.6341C43.5549 50.6171 46.3199 49.2471 46.2809 44.5911C47.1809 46.2861 47.8719 47.8381 48.1329 48.8041C48.7979 51.3331 46.7509 55.2981 42.1729 55.2981Z" fill="url(#paint8_linear_6_229)"/>
<path d="M40.3029 54.1281C41.2249 53.5191 42.1079 52.9761 42.9249 52.3331C43.7399 51.6891 44.4909 50.9921 45.1719 50.1321C45.0759 50.6841 44.8009 51.1841 44.4819 51.6401C44.1649 52.1021 43.7579 52.4931 43.3259 52.8461C42.8779 53.1771 42.4069 53.4801 41.8909 53.6861C41.3839 53.9051 40.8519 54.0601 40.3029 54.1281Z" fill="#E08172"/>
<path d="M31.4379 60.9122C32.0679 60.4152 32.6839 60.0342 33.2799 59.6052C33.8839 59.1862 34.4579 58.7592 35.1009 58.2902C34.9959 58.6842 34.7719 59.0222 34.5239 59.3312C34.2779 59.6462 33.9739 59.9062 33.6529 60.1392C32.9969 60.5802 32.2419 60.8942 31.4379 60.9122Z" fill="#E08172"/>
<path d="M17.2859 55.7092C17.7279 55.2472 18.1849 54.9292 18.6369 54.5942C19.0979 54.2682 19.5409 53.9652 20.0749 53.6282C20.0269 53.9532 19.8619 54.2282 19.6789 54.4782C19.4979 54.7342 19.2609 54.9372 19.0159 55.1242C18.7609 55.2952 18.4949 55.4522 18.1999 55.5452C17.9089 55.6462 17.6079 55.7162 17.2859 55.7092Z" fill="#E08172"/>
<path d="M13.3729 48.8831C14.0389 48.4351 14.6459 48.0701 15.1979 47.6151C15.7529 47.1651 16.2449 46.6701 16.7449 46.0521C16.7459 46.4611 16.5939 46.8471 16.3949 47.1991C16.1989 47.5561 15.9189 47.8611 15.6079 48.1211C15.2829 48.3631 14.9389 48.5871 14.5499 48.7021C14.1719 48.8361 13.7749 48.9041 13.3729 48.8831Z" fill="#E08172"/>
<path d="M7.25491 41.2662C7.94291 40.6762 8.68089 40.2432 9.37289 39.7632C9.72489 39.5342 10.0589 39.2892 10.3789 39.0352C10.6949 38.7732 10.9709 38.4892 11.1259 38.0612C11.2529 38.5172 11.0259 39.0182 10.7459 39.3772C10.4679 39.7582 10.1049 40.0462 9.73691 40.3032C8.98091 40.7952 8.15191 41.1382 7.25491 41.2662Z" fill="#E08172"/>
<path d="M35.6409 90.2141C36.6549 89.8281 37.6399 89.4221 38.5719 88.9161C39.5009 88.4071 40.3879 87.8351 41.2559 87.2121C42.1329 86.6051 42.9989 85.9501 43.9549 85.4151C44.9019 84.8731 45.9289 84.4351 47.0039 84.2621C46.0089 84.6951 45.0899 85.2261 44.2229 85.8391L41.6309 87.7451C39.8739 89.0111 37.8029 89.9791 35.6409 90.2141Z" fill="#E08172"/>
<path d="M56.9519 80.3081C58.7569 79.7151 60.6509 79.4641 62.5339 79.3461C64.4209 79.2561 66.3169 79.2901 68.1899 79.6011C66.3039 79.8011 64.4379 79.8851 62.5699 79.9971L56.9519 80.3081Z" fill="#E08172"/>
<path d="M60.6559 76.8951C62.0749 76.7401 63.4659 76.7291 64.8419 76.6111C65.5299 76.5651 66.2109 76.4841 66.8829 76.3701C67.5509 76.2421 68.2159 76.0761 68.8139 75.6881C68.3919 76.2871 67.6859 76.6231 67.0099 76.8551C66.3219 77.0951 65.6039 77.1981 64.8919 77.2601C63.4649 77.3561 62.0389 77.2461 60.6559 76.8951Z" fill="#E08172"/>
<path d="M43.3439 73.4331C42.5309 71.1881 42.3019 68.7391 42.5089 66.3451C42.7119 63.9431 43.3829 61.6001 44.3049 59.3831C45.2789 57.1851 46.5109 55.1001 48.0139 53.2311C49.5179 51.3661 51.2619 49.6841 53.2549 48.3761C51.4269 49.9001 49.8079 51.6401 48.4109 53.5371C47.0169 55.4351 45.8089 57.4711 44.9029 59.6401C43.0219 63.9261 42.2409 68.7821 43.3439 73.4331Z" fill="#E08172"/>
<defs>
<linearGradient id="paint0_linear_6_229" x1="58.4744" y1="105.348" x2="47.4861" y2="55.4011" gradientUnits="userSpaceOnUse">
<stop offset="0.00047536" stop-color="#F8C5A1"/>
<stop offset="0.7338" stop-color="#F9BA9A"/>
<stop offset="1" stop-color="#FAB597"/>
</linearGradient>
<linearGradient id="paint1_linear_6_229" x1="62.0486" y1="35.0452" x2="82.9805" y2="35.0452" gradientUnits="userSpaceOnUse">
<stop offset="0.00047536" stop-color="#F7B08A"/>
<stop offset="0.3919" stop-color="#F1A583"/>
<stop offset="1" stop-color="#E38C72"/>
</linearGradient>
<linearGradient id="paint2_linear_6_229" x1="61.4487" y1="93.4516" x2="85.4585" y2="93.4516" gradientUnits="userSpaceOnUse">
<stop offset="0.00047536" stop-color="#F7B08A"/>
<stop offset="0.3919" stop-color="#F1A583"/>
<stop offset="1" stop-color="#E38C72"/>
</linearGradient>
<linearGradient id="paint3_linear_6_229" x1="0.0012101" y1="76.8796" x2="68.8303" y2="76.8796" gradientUnits="userSpaceOnUse">
<stop offset="0.00047536" stop-color="#F7B08A"/>
<stop offset="0.3919" stop-color="#F1A583"/>
<stop offset="1" stop-color="#E38C72"/>
</linearGradient>
<linearGradient id="paint4_linear_6_229" x1="19.5978" y1="32.4034" x2="49.5937" y2="32.4034" gradientUnits="userSpaceOnUse">
<stop offset="0.00047536" stop-color="#F7B08A"/>
<stop offset="0.3919" stop-color="#F1A583"/>
<stop offset="1" stop-color="#E38C72"/>
</linearGradient>
<linearGradient id="paint5_linear_6_229" x1="26.7067" y1="57.0914" x2="32.3673" y2="45.2706" gradientUnits="userSpaceOnUse">
<stop offset="0.00047536" stop-color="#F8C5A1"/>
<stop offset="0.7338" stop-color="#F9BA9A"/>
<stop offset="1" stop-color="#FAB597"/>
</linearGradient>
<linearGradient id="paint6_linear_6_229" x1="37.249" y1="48.9813" x2="39.0804" y2="38.326" gradientUnits="userSpaceOnUse">
<stop offset="0.00047536" stop-color="#F8C5A1"/>
<stop offset="0.7338" stop-color="#F9BA9A"/>
<stop offset="1" stop-color="#FAB597"/>
</linearGradient>
<linearGradient id="paint7_linear_6_229" x1="36.7544" y1="49.6358" x2="22.7068" y2="53.6939" gradientUnits="userSpaceOnUse">
<stop offset="0.00047536" stop-color="#F7B08A"/>
<stop offset="0.3919" stop-color="#F1A583"/>
<stop offset="1" stop-color="#E38C72"/>
</linearGradient>
<linearGradient id="paint8_linear_6_229" x1="44.4679" y1="38.9569" x2="31.7315" y2="50.7569" gradientUnits="userSpaceOnUse">
<stop offset="0.00047536" stop-color="#F7B08A"/>
<stop offset="0.3919" stop-color="#F1A583"/>
<stop offset="1" stop-color="#E38C72"/>
</linearGradient>
</defs>
</svg>
