<svg width="85" height="107" viewBox="0 0 85 107" fill="none" xmlns="http://www.w3.org/2000/svg">
<path d="M84.198 88.318C80.729 94.435 76.934 98.556 73.282 101.295C70.009 103.786 66.852 105.168 64.166 105.925C59.51 107.255 56.263 106.682 56.263 106.682C56.263 106.682 51.894 92.649 47.447 85.411C44.656 84.25 36.792 79.086 32.788 74.339C28.797 69.592 23.881 61.649 20.933 58.233C19.564 56.655 18.038 55.194 16.394 53.838C16.381 53.838 16.381 53.825 16.381 53.825C14.49 52.247 12.455 50.825 10.395 49.573C7.20001 47.63 0.666012 43.456 0.0530119 40.013C-0.0779881 39.335 0.0270146 38.683 0.444015 38.083C2.94801 34.47 9.31201 39.622 10.982 40.496C12.651 41.37 20.007 45.947 23.137 47.786C24.011 46.456 24.389 45.125 24.389 45.125C24.389 45.125 19.433 40.834 18.051 39.048C16.682 37.248 11.608 29.971 8.85701 26.098C6.90101 23.32 5.62301 20.49 5.89601 18.521C6.00001 17.751 6.35301 17.099 6.99201 16.656C9.23501 15.065 11.518 15.86 12.952 18.065C14.374 20.269 21.09 29.933 23.216 32.046C25.342 34.172 29.424 38.123 29.424 38.123L30.376 37.38C26.92 34.928 19.186 21.482 15.9 15.652C13.37 11.192 12.366 7.60498 13.279 5.53198C13.54 4.90598 13.996 4.40998 14.648 4.08398C17.387 2.66198 21.221 6.74398 22.056 8.37498C22.891 9.99198 27.429 18.065 29.542 20.778C31.668 23.478 37.158 31.759 37.158 31.759C37.158 31.759 38.449 30.807 39.74 30.429C39.453 29.555 34.171 17.231 32.58 13.618C31.263 10.605 28.172 3.95398 29.267 1.24098C29.489 0.69298 29.893 0.301971 30.506 0.131971C34.171 -0.872029 36.87 4.04497 40.705 11.205C44.526 18.352 48.113 25.564 50.03 30.924C52.351 35.176 57.059 40.888 64.65 41.67C66.358 40.887 66.671 39.792 66.671 39.792C66.358 35.958 66.658 32.841 67.388 30.232C67.388 30.219 67.388 30.219 67.401 30.206C67.388 30.193 67.388 30.193 67.401 30.18C67.388 30.167 67.388 30.167 67.401 30.154C67.388 30.141 67.388 30.141 67.401 30.128C68.705 25.368 71.444 22.525 74.444 20.973C74.483 20.947 74.535 20.921 74.574 20.908C79.1 18.626 79.36 21.873 78.565 23.908C77.756 25.969 76.909 29.633 76.661 32.933C76.413 36.22 77.496 40.954 78.03 47.031C78.578 53.108 78.656 56.486 72.539 69.724C72.539 69.721 77.286 80.076 84.198 88.318Z" fill="url(#paint0_linear_6_326)"/>
<path d="M84.198 88.318C80.729 94.435 76.934 98.556 73.282 101.295C74.273 98.713 75.434 94.983 75.916 90.692C76.829 82.502 71.586 76.333 66.083 75.551C70.674 74.208 71.547 71.091 71.547 71.091C71.547 71.091 64.087 74.012 61.883 73.086C65.117 72.29 67.426 70.386 68.091 69.786C67.635 70.112 66.343 70.699 63.096 70.295C75.16 66.435 76.373 53.523 76.125 47.994C75.864 42.451 76.542 37.587 73.543 32.214C78.707 27.806 78.225 21.468 74.573 20.907C79.099 18.625 79.359 21.872 78.564 23.907C77.755 25.968 76.908 29.632 76.66 32.932C76.412 36.219 77.495 40.953 78.029 47.03C78.577 53.107 78.655 56.485 72.538 69.723C72.539 69.721 77.286 80.076 84.198 88.318Z" fill="url(#paint1_linear_6_326)"/>
<path d="M64.166 105.924C59.51 107.254 56.263 106.681 56.263 106.681C56.263 106.681 51.894 92.648 47.447 85.41C44.656 84.249 36.792 79.085 32.788 74.338C28.797 69.591 23.881 61.648 20.933 58.232C19.564 56.654 18.038 55.193 16.394 53.837C19.107 54.737 21.428 54.241 21.428 54.241C21.428 54.241 21.963 59.64 28.51 59.484C30.753 71.052 40.078 81.368 54.619 81.746C52.872 91.253 53.732 99.338 64.166 105.924Z" fill="url(#paint2_linear_6_326)"/>
<path d="M24.389 45.1241C24.546 46.9111 21.963 51.8141 21.963 51.8141C21.963 51.8141 21.115 47.4321 17.907 46.8841C14.712 46.3491 17.124 45.6191 14.164 44.2231C11.204 42.8281 11.438 44.5621 10.33 44.2231C9.23501 43.8841 9.16901 41.3281 6.62601 39.5021C4.31801 37.8331 1.21401 36.9981 0.0530119 40.0111C-0.0779881 39.3331 0.0270146 38.6811 0.444015 38.0811C2.94801 34.4681 9.31201 39.6201 10.982 40.4941C12.651 41.3681 20.007 45.9451 23.137 47.7841C24.01 46.4541 24.389 45.1241 24.389 45.1241Z" fill="url(#paint3_linear_6_326)"/>
<path d="M30.375 37.377L27.636 42.033C27.636 42.033 27.336 40.585 25.21 36.634C23.097 32.669 20.724 35.382 20.724 32.878C20.724 30.387 18.103 27.009 15.69 26.305C13.264 25.601 14.647 24.062 12.938 20.188C11.516 16.98 8.38601 16.38 5.89501 18.519C5.99901 17.749 6.35201 17.097 6.99101 16.654C9.23401 15.063 11.517 15.858 12.951 18.063C14.373 20.267 21.089 29.931 23.215 32.044C25.341 34.17 29.423 38.121 29.423 38.121L30.375 37.377Z" fill="url(#paint4_linear_6_326)"/>
<path d="M39.739 30.426C39.739 30.426 37.326 32.643 36.048 34.26C35.918 32.147 34.731 34.104 33.27 29.265C31.796 24.427 29.436 25.405 28.405 21.753C27.374 18.101 25.497 15.91 23.567 14.75C21.624 13.602 22.341 12.976 20.998 9.41604C19.837 6.35104 16.368 3.79504 13.277 5.53004C13.538 4.90404 13.994 4.40804 14.646 4.08204C17.385 2.66004 21.219 6.74203 22.054 8.37303C22.889 9.99003 27.427 18.063 29.54 20.776C31.666 23.476 37.156 31.757 37.156 31.757C37.156 31.757 38.448 30.804 39.739 30.426Z" fill="url(#paint5_linear_6_326)"/>
<path d="M68.613 40.977C65.053 41.629 62.21 44.355 60.736 45.346C59.993 42.412 54.098 37.012 51.346 35.982C48.594 34.952 48.346 33.608 47.877 30.87C47.407 28.118 45.19 29.018 45.725 27.062C46.26 25.093 45.438 24.023 44.134 20.932C42.817 17.841 40.639 19.81 40.861 17.072C41.07 14.32 40.196 11.973 38.083 10.512C35.957 9.03802 38.044 6.36503 34.588 2.73903C32.241 0.287027 30.297 0.704027 29.267 1.23903C29.489 0.691027 29.893 0.300018 30.506 0.130018C34.171 -0.873982 36.87 4.04302 40.705 11.203C44.526 18.35 48.113 25.562 50.03 30.922C52.351 35.174 57.059 40.886 64.65 41.668C66.358 40.885 66.671 39.79 66.671 39.79C66.358 35.956 66.658 32.839 67.388 30.23C67.218 34.834 67.935 38.734 68.613 40.977Z" fill="url(#paint6_linear_6_326)"/>
<path d="M47.942 44.724C43.072 56.149 49.253 71.82 58.743 74.193C36.516 70.197 41.324 47.533 47.942 44.724Z" fill="url(#paint7_linear_6_326)"/>
<path d="M30.086 58.397C31.175 57.2 32.289 56.044 33.254 54.764C34.226 53.495 35.158 52.197 35.945 50.808C36.756 49.434 37.45 47.995 38.11 46.533C38.8 45.094 39.271 43.5 40.281 42.207C39.874 42.906 39.625 43.669 39.375 44.435L38.574 46.722C38.018 48.245 37.323 49.726 36.507 51.137C35.689 52.547 34.719 53.869 33.638 55.083C32.576 56.316 31.355 57.399 30.086 58.397Z" fill="#E08172"/>
<path d="M52.603 55.941C52.217 57.072 52.118 58.246 52.115 59.412C52.129 60.579 52.229 61.746 52.43 62.896C52.618 64.048 52.908 65.183 53.295 66.283C53.691 67.379 54.201 68.44 54.933 69.385C53.999 68.624 53.336 67.566 52.83 66.472C52.315 65.373 51.996 64.195 51.787 63.006C51.595 61.814 51.509 60.599 51.615 59.392C51.721 58.195 51.968 56.966 52.603 55.941Z" fill="#E08172"/>
<path d="M51.646 56.191C51.179 58.015 50.806 59.814 50.835 61.639C50.833 63.463 51.215 65.263 51.646 67.096C50.738 65.45 50.203 63.564 50.183 61.642C50.176 59.721 50.707 57.82 51.646 56.191Z" fill="#E08172"/>
<path d="M48.649 85.16C49.64 84.744 50.645 84.4 51.543 83.866C52.444 83.344 53.254 82.718 53.937 81.937C54.634 81.176 55.272 80.264 56.181 79.609C57.077 78.947 58.123 78.556 59.179 78.375C58.2 78.816 57.262 79.307 56.499 79.997C55.735 80.683 55.148 81.552 54.421 82.373C53.688 83.189 52.772 83.874 51.769 84.311C50.775 84.777 49.708 85.004 48.649 85.16Z" fill="#E08172"/>
<path d="M72.332 72.09C71.435 73.355 70.275 74.522 68.786 75.181C68.048 75.499 67.281 75.717 66.505 75.844C65.73 75.973 64.952 76.05 64.166 76.044C65.649 75.532 67.155 75.197 68.522 74.585C69.208 74.289 69.842 73.899 70.469 73.471C71.093 73.038 71.689 72.542 72.332 72.09Z" fill="#E08172"/>
<path d="M61.656 43.4751C62.078 43.0621 62.522 42.8071 62.975 42.5581C63.438 42.3241 63.897 42.1181 64.465 41.9771C64.348 42.2551 64.155 42.4651 63.953 42.6581C63.753 42.8561 63.517 43.0021 63.277 43.1371C62.784 43.3771 62.244 43.5421 61.656 43.4751Z" fill="#E08172"/>
<path d="M20.721 53.901C20.817 52.97 21.172 52.109 21.602 51.31C21.828 50.915 22.065 50.53 22.338 50.172C22.597 49.803 22.885 49.472 23.115 49.073C23.145 49.556 22.942 50.002 22.774 50.42C22.601 50.843 22.381 51.233 22.172 51.626C21.949 52.012 21.737 52.4 21.489 52.774C21.247 53.152 21.014 53.534 20.721 53.901Z" fill="#E08172"/>
<path d="M13.957 49.24L15.185 47.42C15.598 46.827 16.001 46.23 16.538 45.66C16.511 46.056 16.394 46.421 16.256 46.777C16.123 47.136 15.932 47.467 15.723 47.787C15.286 48.403 14.714 48.994 13.957 49.24Z" fill="#E08172"/>
<path d="M8.98301 45.9311C9.04501 45.5971 9.15301 45.3071 9.25801 45.0151C9.35601 44.7201 9.49202 44.4481 9.61802 44.1701C9.89702 43.6261 10.193 43.0941 10.648 42.6011C10.672 43.2751 10.471 43.8851 10.203 44.4581C9.91401 45.0181 9.54301 45.5571 8.98301 45.9311Z" fill="#E08172"/>
<path d="M18.952 35.796C19.276 35.148 19.744 34.631 20.241 34.15C20.755 33.687 21.303 33.258 21.969 32.986C21.629 33.651 21.172 34.158 20.68 34.632C20.171 35.087 19.634 35.507 18.952 35.796Z" fill="#E08172"/>
<path d="M25.07 44.859C25.224 44.51 25.417 44.212 25.607 43.911C25.79 43.606 26.007 43.331 26.216 43.048C26.657 42.499 27.113 41.966 27.714 41.509C27.54 42.247 27.164 42.872 26.731 43.449C26.277 44.008 25.753 44.53 25.07 44.859Z" fill="#E08172"/>
<path d="M32.396 35.7961C32.852 35.0701 33.383 34.4701 33.912 33.8631C34.454 33.2651 34.993 32.6881 35.622 32.1121C35.537 32.5381 35.346 32.9191 35.138 33.2831C34.933 33.6521 34.671 33.9801 34.399 34.2971C34.113 34.6011 33.819 34.899 33.478 35.1451C33.144 35.3981 32.792 35.6281 32.396 35.7961Z" fill="#E08172"/>
<path d="M12.625 27.638C13.147 26.958 13.771 26.445 14.423 25.968C15.09 25.511 15.782 25.094 16.6 24.829C16.093 25.5 15.46 26.019 14.802 26.499C14.129 26.958 13.428 27.381 12.625 27.638Z" fill="#E08172"/>
<path d="M24.55 25.765C25.276 25.277 25.978 24.879 26.704 24.474C27.436 24.086 28.17 23.705 29.004 23.434C28.459 24.126 27.758 24.627 27.015 25.047C26.261 25.438 25.434 25.761 24.55 25.765Z" fill="#E08172"/>
<path d="M18.556 16.087C18.817 15.861 19.086 15.697 19.353 15.528C19.616 15.352 19.895 15.218 20.169 15.071C20.732 14.803 21.299 14.552 21.969 14.423C21.573 14.984 21.032 15.356 20.459 15.655C19.878 15.93 19.24 16.136 18.556 16.087Z" fill="#E08172"/>
<path d="M33.082 11.3631C33.4 10.7001 34.049 10.2851 34.682 10.0151C35.009 9.8891 35.343 9.78709 35.69 9.74409C36.035 9.69709 36.385 9.6721 36.744 9.7391C36.135 10.1241 35.529 10.3651 34.926 10.6191C34.313 10.8601 33.741 11.0831 33.082 11.3631Z" fill="#E08172"/>
<path d="M37.037 19.6881C37.492 19.4691 37.951 19.3151 38.405 19.1501C38.857 18.9781 39.314 18.8441 39.764 18.6881L41.116 18.2401C41.563 18.0801 42.006 17.9221 42.448 17.6891C42.183 18.1291 41.752 18.4311 41.33 18.6941C40.902 18.9601 40.437 19.1451 39.968 19.3071C39.022 19.6021 38.037 19.7691 37.037 19.6881Z" fill="#E08172"/>
<path d="M41.199 29.6771C42.005 28.9151 43.162 28.7171 44.171 28.5621L45.691 28.3591C46.184 28.2721 46.659 28.1451 47.109 27.8461C46.858 28.3391 46.333 28.6511 45.826 28.8421C45.312 29.0451 44.778 29.1271 44.261 29.2071C43.214 29.3491 42.227 29.3811 41.199 29.6771Z" fill="#E08172"/>
<defs>
<linearGradient id="paint0_linear_6_326" x1="-8.76367e-05" y1="53.402" x2="84.1978" y2="53.402" gradientUnits="userSpaceOnUse">
<stop offset="0.00047536" stop-color="#F8C5A1"/>
<stop offset="0.7338" stop-color="#F9BA9A"/>
<stop offset="1" stop-color="#FAB597"/>
</linearGradient>
<linearGradient id="paint1_linear_6_326" x1="61.8834" y1="60.7096" x2="84.1978" y2="60.7096" gradientUnits="userSpaceOnUse">
<stop offset="0.00047536" stop-color="#F7B08A"/>
<stop offset="0.3919" stop-color="#F1A583"/>
<stop offset="1" stop-color="#E38C72"/>
</linearGradient>
<linearGradient id="paint2_linear_6_326" x1="16.3939" y1="80.3199" x2="64.1657" y2="80.3199" gradientUnits="userSpaceOnUse">
<stop offset="0.00047536" stop-color="#F7B08A"/>
<stop offset="0.3919" stop-color="#F1A583"/>
<stop offset="1" stop-color="#E38C72"/>
</linearGradient>
<linearGradient id="paint3_linear_6_326" x1="-8.76367e-05" y1="44.3129" x2="24.3953" y2="44.3129" gradientUnits="userSpaceOnUse">
<stop offset="0.00047536" stop-color="#F7B08A"/>
<stop offset="0.3919" stop-color="#F1A583"/>
<stop offset="1" stop-color="#E38C72"/>
</linearGradient>
<linearGradient id="paint4_linear_6_326" x1="5.89531" y1="28.9255" x2="30.3746" y2="28.9255" gradientUnits="userSpaceOnUse">
<stop offset="0.00047536" stop-color="#F7B08A"/>
<stop offset="0.3919" stop-color="#F1A583"/>
<stop offset="1" stop-color="#E38C72"/>
</linearGradient>
<linearGradient id="paint5_linear_6_326" x1="13.277" y1="19.0232" x2="39.7386" y2="19.0232" gradientUnits="userSpaceOnUse">
<stop offset="0.00047536" stop-color="#F7B08A"/>
<stop offset="0.3919" stop-color="#F1A583"/>
<stop offset="1" stop-color="#E38C72"/>
</linearGradient>
<linearGradient id="paint6_linear_6_326" x1="29.2661" y1="22.6728" x2="68.6129" y2="22.6728" gradientUnits="userSpaceOnUse">
<stop offset="0.00047536" stop-color="#F7B08A"/>
<stop offset="0.3919" stop-color="#F1A583"/>
<stop offset="1" stop-color="#E38C72"/>
</linearGradient>
<linearGradient id="paint7_linear_6_326" x1="42.4048" y1="59.458" x2="58.7426" y2="59.458" gradientUnits="userSpaceOnUse">
<stop offset="0.00047536" stop-color="#F7B08A"/>
<stop offset="0.3919" stop-color="#F1A583"/>
<stop offset="1" stop-color="#E38C72"/>
</linearGradient>
</defs>
</svg>
