<svg width="80" height="64" viewBox="0 0 80 64" fill="none" xmlns="http://www.w3.org/2000/svg">
<path d="M73.2446 47.2555C71.8356 49.0295 70.1406 50.8285 68.0806 52.6285C59.5906 51.3765 44.1096 51.7935 44.1096 51.7935C44.1096 51.7935 46.6526 43.4335 50.1866 35.0215C51.3346 32.3085 52.5736 29.5965 53.8776 27.1575C55.9386 23.2455 58.1296 20.0365 60.2546 18.6675C66.1756 19.7495 74.2487 17.8325 74.2487 17.8325C74.2487 17.8325 75.9047 19.8275 77.2747 23.1535C79.4917 28.5795 80.9396 37.5395 73.2446 47.2555Z" fill="url(#paint0_linear_6_204)"/>
<path d="M77.2747 23.1545C69.0977 21.2245 64.3766 22.4635 53.8776 27.1585C55.9386 23.2465 58.1296 20.0375 60.2546 18.6685C66.1756 19.7505 74.2487 17.8335 74.2487 17.8335C74.2487 17.8335 75.9057 19.8295 77.2747 23.1545Z" fill="url(#paint1_linear_6_204)"/>
<path d="M73.2446 47.2555C71.8356 49.0295 70.1406 50.8285 68.0806 52.6285C59.5906 51.3765 44.1096 51.7935 44.1096 51.7935C44.1096 51.7935 46.6526 43.4335 50.1866 35.0215C57.5816 46.4995 63.8806 50.1375 73.2446 47.2555Z" fill="url(#paint2_linear_6_204)"/>
<path d="M55.0646 36.0265C55.2206 40.0175 52.2216 42.1035 52.2216 42.1035C52.2216 42.1035 52.7306 51.4285 43.5226 56.4625C41.7226 57.4405 39.2707 57.7925 36.6237 57.3755C25.6817 55.6405 11.3096 40.7735 25.5906 2.67847C31.3286 2.71747 36.1156 5.14347 44.3186 3.18747C48.3356 2.22247 52.9656 2.03944 56.3566 3.34344C59.8776 4.68644 62.0556 7.64745 60.8036 13.0464C65.0416 23.6244 57.8426 33.1965 55.0646 36.0265Z" fill="url(#paint3_linear_6_204)"/>
<path d="M55.0646 36.0265C55.2206 40.0175 52.2216 42.1035 52.2216 42.1035C52.2216 42.1035 52.7306 51.4285 43.5226 56.4625C41.7226 57.4405 39.2707 57.7925 36.6237 57.3755C46.6397 51.6245 45.3096 41.1385 45.3096 41.1385C45.3096 41.1385 46.4446 34.3175 51.9346 32.3355C57.4256 30.3405 57.9337 24.7195 57.9337 24.7195L55.8076 26.5975C55.8076 26.5975 58.3637 21.3545 57.8687 14.1685L56.3557 3.34351C59.8767 4.68651 62.0546 7.64751 60.8026 13.0465C65.0416 23.6245 57.8426 33.1965 55.0646 36.0265Z" fill="url(#paint4_linear_6_204)"/>
<path d="M46.6136 53.3076C46.5226 54.4946 46.3397 55.5116 46.3137 55.7466C46.2617 56.3726 42.8186 62.2416 36.0106 63.4936C29.2156 64.7456 19.1606 62.0586 14.5956 59.2556C10.0436 56.4386 9.23561 54.2605 9.03961 51.8865C9.03961 51.7955 9.02661 51.7175 9.01361 51.6255C8.75261 49.2905 7.31865 46.1875 4.67065 42.4575C4.67065 42.4575 4.10964 39.6406 16.6556 47.2046C29.2146 54.7556 40.1306 50.6996 45.0736 48.8216C46.6926 48.6646 46.7836 51.2336 46.6136 53.3076Z" fill="url(#paint5_linear_6_204)"/>
<path d="M47.6837 46.7476C47.6707 46.7476 47.6707 46.7606 47.6707 46.7606C47.1877 47.9346 46.6926 48.7816 46.5096 48.9516C45.7526 49.6296 39.5717 52.9426 29.8947 52.3816C20.2177 51.8206 10.2926 43.7606 4.17664 42.8216C4.17664 42.8216 3.7326 40.5266 3.6806 37.9176C3.6806 37.9046 3.6806 37.9046 3.6806 37.8916C4.8676 36.0786 4.24161 30.5236 0.367615 27.4056C0.367615 27.4056 2.61064 25.7236 15.9786 33.2096C29.3336 40.7086 33.0767 37.2656 43.0667 36.9006C50.5787 36.6136 49.1567 43.1866 47.6837 46.7476Z" fill="url(#paint6_linear_6_204)"/>
<path d="M46.4446 34.3185C46.1706 35.3485 45.7926 36.0665 45.5056 36.3925C44.6316 37.3965 38.2806 39.7055 29.8296 39.0795C22.6826 38.5575 8.44164 29.6375 0.36864 27.4075C0.36864 27.4075 0.238593 26.8985 0.133593 26.1165C-0.0354068 24.8645 -0.140358 22.9345 0.433642 21.3565C3.48564 19.8565 8.28461 13.4925 6.06761 9.18848C6.43261 9.43648 12.2756 13.4535 23.1526 18.4745C34.3946 23.6655 43.6936 18.9835 45.8186 24.9695C47.2396 28.9585 47.0186 32.2705 46.4446 34.3185Z" fill="url(#paint7_linear_6_204)"/>
<path d="M44.4486 23.6636C36.0366 25.7766 25.9686 23.1156 18.0656 19.1646C12.0146 16.1126 7.24065 12.3046 5.48065 9.30556C5.48065 9.30556 6.61564 3.93257 9.28864 2.31557C34.2116 -0.879425 39.8196 9.67158 42.3236 12.4886C43.6406 13.9756 44.6976 16.2446 45.1146 18.4616C45.4926 20.4156 45.3486 22.3466 44.4486 23.6636Z" fill="url(#paint8_linear_6_204)"/>
<path d="M46.4446 34.3185C46.1706 35.3485 45.7926 36.0665 45.5056 36.3925C44.6316 37.3965 38.2807 39.7055 29.8297 39.0795C22.6827 38.5575 8.44165 29.6375 0.368652 27.4075C0.368652 27.4075 0.238606 26.8985 0.133606 26.1165C10.6716 21.6825 22.0306 42.1315 38.5156 35.8975C40.9536 36.6005 44.2796 35.8185 46.4446 34.3185Z" fill="url(#paint9_linear_6_204)"/>
<path d="M47.6707 46.7605C47.1877 47.9345 46.6926 48.7815 46.5096 48.9515C45.7526 49.6295 39.5717 52.9425 29.8947 52.3815C20.2177 51.8205 10.2926 43.7605 4.17664 42.8215C4.17664 42.8215 3.7326 40.5265 3.6806 37.9175C11.3226 38.5955 20.6996 48.4425 29.7116 48.4425C39.2056 48.4425 41.2537 46.6425 41.2537 46.6425C41.2537 46.6425 43.7057 49.8245 47.6707 46.7605Z" fill="url(#paint10_linear_6_204)"/>
<path d="M46.6136 53.3075C46.5226 54.4945 46.3397 55.5115 46.3137 55.7465C46.2617 56.3725 42.8186 62.2415 36.0106 63.4935C29.2156 64.7455 19.1606 62.0585 14.5956 59.2555C10.0436 56.4385 9.23561 54.2605 9.03961 51.8865C9.03961 51.7955 9.02661 51.7175 9.01361 51.6255C10.0566 50.7775 11.8436 50.5305 14.8566 52.4475C21.5336 56.6855 28.2766 64.8245 39.1406 57.5465C42.1536 58.7845 45.0746 56.1895 46.6136 53.3075Z" fill="url(#paint11_linear_6_204)"/>
<path d="M45.1146 18.4595C39.4936 20.9765 38.4636 15.4335 33.5206 15.4335C28.0826 15.4335 25.0957 8.11751 19.6187 5.49551C14.1277 2.87451 9.55066 6.48653 9.55066 6.86452C9.55066 7.24252 9.28961 8.23351 9.28961 8.23351C9.28961 8.23351 10.0457 10.3595 18.0667 19.1625C12.0157 16.1105 7.24163 12.3025 5.48163 9.30352C5.48163 9.30352 6.61661 3.9305 9.28961 2.3135C34.2126 -0.8815 39.8206 9.6695 42.3246 12.4865C43.6406 13.9735 44.6966 16.2425 45.1146 18.4595Z" fill="url(#paint12_linear_6_204)"/>
<path d="M59.9686 7.59553C59.9686 7.59553 57.5947 22.1765 54.3477 27.2495C51.1007 32.3225 46.2357 31.3185 44.2147 28.7625C42.1937 26.1935 42.0756 21.2895 42.9496 17.2075C43.8236 13.1255 41.9976 3.64454 41.9976 3.64454C45.0626 2.30154 45.9886 1.20554 47.2796 0.592542L47.2926 0.579542C48.4276 0.0315419 49.8486 -0.163481 53.2656 0.149519C56.1216 0.410519 57.7646 1.59753 58.7036 2.94053C60.2036 5.06553 59.9686 7.59553 59.9686 7.59553Z" fill="url(#paint13_linear_6_204)"/>
<path d="M59.9686 7.59552C59.9686 7.59552 57.5947 22.1765 54.3477 27.2495C51.1007 32.3225 46.2357 31.3185 44.2147 28.7625C42.1937 26.1935 42.0756 21.2895 42.9496 17.2075C43.8236 13.1255 41.9976 3.64453 41.9976 3.64453C45.0626 2.30153 45.9886 1.20553 47.2796 0.592529C45.0366 3.13553 44.7367 4.49253 45.6887 5.75653C42.9107 9.94253 45.9106 15.8375 45.1796 19.7505C44.4486 23.6635 44.7107 27.6145 49.3657 27.2495C54.0217 26.8715 51.5566 22.8675 54.6476 17.9895C57.7256 13.1245 56.7996 6.48651 56.7996 6.48651C56.7996 6.48651 58.5476 5.43051 58.7036 2.93951C60.2036 5.06551 59.9686 7.59552 59.9686 7.59552Z" fill="url(#paint14_linear_6_204)"/>
<path d="M54.4387 21.1205C54.2827 25.3195 53.8126 28.2545 49.9396 29.7155C46.0666 31.1765 43.6146 27.6935 43.6146 24.6035C43.6146 21.4995 45.1276 18.4995 45.1276 18.4995C45.3106 18.5905 45.4927 18.6825 45.6757 18.7605C48.9487 20.3515 51.0226 20.8345 53.5526 21.0425C53.8386 21.0815 54.1387 21.0945 54.4387 21.1205Z" fill="url(#paint15_linear_6_204)"/>
<path d="M44.8196 5.61758C46.7146 4.07458 49.3597 3.44258 51.8217 3.85858C54.2857 4.26658 56.5817 5.72559 57.8687 7.80359C57.0147 6.93759 56.0696 6.19457 55.0286 5.63757C53.9866 5.08657 52.8696 4.68959 51.7136 4.50159C49.3986 4.10159 46.9866 4.51858 44.8196 5.61758Z" fill="#E08172"/>
<path d="M39.4506 29.5295C39.6946 30.9825 39.5746 32.4785 39.2456 33.9125C38.8946 35.3415 38.3276 36.7315 37.4526 37.9175C37.8656 36.5065 38.2906 35.1535 38.6116 33.7615C38.9536 32.3755 39.1846 30.9755 39.4506 29.5295Z" fill="#E08172"/>
<path d="M41.2537 42.3905C41.6427 43.4755 41.6427 44.6615 41.4677 45.7865C41.3657 46.3495 41.2286 46.9075 41.0096 47.4375C40.7956 47.9675 40.5357 48.4885 40.1577 48.9255C40.4297 47.8185 40.6476 46.7605 40.8256 45.6785C41.0156 44.5985 41.1357 43.5285 41.2537 42.3905Z" fill="#E08172"/>
<path d="M39.6586 54.1696C39.8566 54.8526 39.8846 55.5726 39.8546 56.2776C39.8316 56.9866 39.7126 57.6855 39.5616 58.3745C39.3936 59.0595 39.1927 59.7386 38.8997 60.3846C38.6097 61.0246 38.2746 61.6786 37.7446 62.1616C38.0486 61.5276 38.2406 60.8755 38.4276 60.2155C38.6016 59.5525 38.7796 58.8936 38.9276 58.2256C39.2366 56.8916 39.5186 55.5676 39.6586 54.1696Z" fill="#E08172"/>
<path d="M34.6216 11.9645C34.9966 13.5425 34.8806 15.2495 34.3776 16.8085C34.1236 17.5885 33.7976 18.3475 33.3626 19.0415C32.9356 19.7375 32.4437 20.3985 31.8297 20.9355C32.6277 19.5295 33.2917 18.1065 33.7567 16.6105C34.0047 15.8685 34.1846 15.1075 34.3276 14.3355C34.4886 13.5625 34.5326 12.7745 34.6216 11.9645Z" fill="#E08172"/>
<path d="M30.5426 11.5906C30.2226 12.2936 29.9147 12.9696 29.6767 13.6776C29.4527 14.3886 29.2276 15.0936 29.0676 15.8216C28.7206 17.2706 28.4926 18.7446 28.2606 20.2616C28.1086 19.5036 28.0907 18.7306 28.1187 17.9616C28.1427 17.1906 28.2646 16.4256 28.4326 15.6706C28.7986 14.1756 29.4516 12.6906 30.5426 11.5906Z" fill="#E08172"/>
<path opacity="0.35" d="M50.6046 38.4785C51.2616 38.0415 51.9076 37.7295 52.5356 37.3775C53.1706 37.0335 53.7757 36.6925 54.4337 36.2725C54.3127 36.6575 54.0576 36.9715 53.7856 37.2515C53.5126 37.5375 53.1846 37.7555 52.8466 37.9495C52.5006 38.1285 52.1417 38.2815 51.7617 38.3645C51.3857 38.4555 51.0006 38.5075 50.6046 38.4785Z" fill="#E08172"/>
<path opacity="0.68" d="M53.5516 21.0415C51.5176 22.2285 47.8786 22.7365 45.6746 18.7595C48.9486 20.3505 51.0216 20.8335 53.5516 21.0415Z" fill="#F8917F"/>
<defs>
<linearGradient id="paint0_linear_6_204" x1="57.8593" y1="37.3088" x2="68.9309" y2="34.3952" gradientUnits="userSpaceOnUse">
<stop offset="0.00047536" stop-color="#F8C5A1"/>
<stop offset="0.7338" stop-color="#F9BA9A"/>
<stop offset="1" stop-color="#FAB597"/>
</linearGradient>
<linearGradient id="paint1_linear_6_204" x1="53.8781" y1="22.496" x2="77.2751" y2="22.496" gradientUnits="userSpaceOnUse">
<stop offset="0.00047536" stop-color="#F7B08A"/>
<stop offset="0.3919" stop-color="#F1A583"/>
<stop offset="1" stop-color="#E38C72"/>
</linearGradient>
<linearGradient id="paint2_linear_6_204" x1="44.1099" y1="43.8258" x2="73.2451" y2="43.8258" gradientUnits="userSpaceOnUse">
<stop offset="0.00047536" stop-color="#F7B08A"/>
<stop offset="0.3919" stop-color="#F1A583"/>
<stop offset="1" stop-color="#E38C72"/>
</linearGradient>
<linearGradient id="paint3_linear_6_204" x1="29.27" y1="12.9967" x2="34.7641" y2="19.2401" gradientUnits="userSpaceOnUse">
<stop offset="0.00047536" stop-color="#FAB597"/>
<stop offset="0.2198" stop-color="#F5AA8D"/>
<stop offset="0.6026" stop-color="#E68D73"/>
<stop offset="1" stop-color="#D46951"/>
</linearGradient>
<linearGradient id="paint4_linear_6_204" x1="59.3152" y1="29.0191" x2="26.8497" y2="33.0981" gradientUnits="userSpaceOnUse">
<stop offset="0.00047536" stop-color="#F39067"/>
<stop offset="0.3683" stop-color="#EA8561"/>
<stop offset="1" stop-color="#D46951"/>
</linearGradient>
<linearGradient id="paint5_linear_6_204" x1="19.0833" y1="63.7782" x2="22.7461" y2="55.3705" gradientUnits="userSpaceOnUse">
<stop offset="0.00047536" stop-color="#F8C5A1"/>
<stop offset="0.7338" stop-color="#F9BA9A"/>
<stop offset="1" stop-color="#FAB597"/>
</linearGradient>
<linearGradient id="paint6_linear_6_204" x1="22.1122" y1="48.761" x2="23.6938" y2="40.0203" gradientUnits="userSpaceOnUse">
<stop offset="0.00047536" stop-color="#F8C5A1"/>
<stop offset="0.7338" stop-color="#F9BA9A"/>
<stop offset="1" stop-color="#FAB597"/>
</linearGradient>
<linearGradient id="paint7_linear_6_204" x1="21.4995" y1="32.8622" x2="23.9136" y2="26.7021" gradientUnits="userSpaceOnUse">
<stop offset="0.00047536" stop-color="#F8C5A1"/>
<stop offset="0.7338" stop-color="#F9BA9A"/>
<stop offset="1" stop-color="#FAB597"/>
</linearGradient>
<linearGradient id="paint8_linear_6_204" x1="17.0155" y1="5.69147" x2="38.1598" y2="21.4248" gradientUnits="userSpaceOnUse">
<stop offset="0.00047536" stop-color="#F7B08A"/>
<stop offset="0.3919" stop-color="#F1A583"/>
<stop offset="1" stop-color="#E38C72"/>
</linearGradient>
<linearGradient id="paint9_linear_6_204" x1="0.133206" y1="32.3321" x2="46.4444" y2="32.3321" gradientUnits="userSpaceOnUse">
<stop offset="0.00047536" stop-color="#F7B08A"/>
<stop offset="0.3919" stop-color="#F1A583"/>
<stop offset="1" stop-color="#E38C72"/>
</linearGradient>
<linearGradient id="paint10_linear_6_204" x1="3.6806" y1="45.1813" x2="47.6704" y2="45.1813" gradientUnits="userSpaceOnUse">
<stop offset="0.00047536" stop-color="#F7B08A"/>
<stop offset="0.3919" stop-color="#F1A583"/>
<stop offset="1" stop-color="#E38C72"/>
</linearGradient>
<linearGradient id="paint11_linear_6_204" x1="9.01461" y1="57.3979" x2="46.6139" y2="57.3979" gradientUnits="userSpaceOnUse">
<stop offset="0.00047536" stop-color="#F7B08A"/>
<stop offset="0.3919" stop-color="#F1A583"/>
<stop offset="1" stop-color="#E38C72"/>
</linearGradient>
<linearGradient id="paint12_linear_6_204" x1="5.48033" y1="10.4407" x2="45.1141" y2="10.4407" gradientUnits="userSpaceOnUse">
<stop offset="0.00047536" stop-color="#F8C5A1"/>
<stop offset="0.7338" stop-color="#F9BA9A"/>
<stop offset="1" stop-color="#FAB597"/>
</linearGradient>
<linearGradient id="paint13_linear_6_204" x1="46.5227" y1="16.9565" x2="55.3466" y2="11.9618" gradientUnits="userSpaceOnUse">
<stop offset="0.00047536" stop-color="#F8C5A1"/>
<stop offset="0.7338" stop-color="#F9BA9A"/>
<stop offset="1" stop-color="#FAB597"/>
</linearGradient>
<linearGradient id="paint14_linear_6_204" x1="50.2207" y1="15.8629" x2="33.9046" y2="14.9472" gradientUnits="userSpaceOnUse">
<stop offset="0.00047536" stop-color="#F7B08A"/>
<stop offset="0.3919" stop-color="#F1A583"/>
<stop offset="1" stop-color="#E38C72"/>
</linearGradient>
<linearGradient id="paint15_linear_6_204" x1="47.3231" y1="29.0338" x2="49.9042" y2="20.3745" gradientUnits="userSpaceOnUse">
<stop offset="0.00047536" stop-color="#F7B08A"/>
<stop offset="0.3919" stop-color="#F1A583"/>
<stop offset="1" stop-color="#E38C72"/>
</linearGradient>
</defs>
</svg>
