<svg width="86" height="124" viewBox="0 0 86 124" fill="none" xmlns="http://www.w3.org/2000/svg">
<path d="M9.468 120.642C3.351 117.877 0 114.395 0 114.395C0 114.395 6.586 99.4097 6.377 84.3857C3.795 75.1387 3.66401 62.5277 5.79001 55.4587C7.91601 48.3767 14.319 53.2027 26.057 50.2547C31.156 48.9767 34.221 47.6337 36.334 46.2377C39.086 44.3987 40.22 42.4297 42.125 40.2647C45.503 36.4307 46.416 17.7417 46.116 11.0777C45.855 4.92174 46.729 1.68772 48.437 0.604717C48.567 0.513717 48.724 0.448732 48.867 0.382732C50.862 -0.400268 54.566 -0.817306 55.362 7.88169C56.288 18.0937 54.501 37.2257 54.566 41.8427C54.657 46.7987 54.318 52.9547 56.9 63.4397C59.026 64.2747 60.434 63.6487 60.434 63.6487C60.434 63.6487 64.06 58.6927 69.798 55.9927C75.549 53.2927 85.2 52.8757 85.657 56.4097C85.866 58.0007 85.109 58.9657 83.609 60.0617C81.796 61.3787 78.888 62.8787 75.301 65.9437C71.349 69.3087 69.041 73.7557 66.993 77.0427C65.663 79.1947 64.437 80.8507 62.937 81.3857C59.142 82.7547 49.569 88.2067 39.84 95.0407C38.627 98.6537 37.714 113.978 38.627 121.555C35.562 122.611 32.641 123.263 29.889 123.616C21.427 124.711 14.515 122.925 9.468 120.642Z" fill="url(#paint0_linear_26_11)"/>
<path d="M29.891 123.616C36.738 113.665 32.213 98.4057 23.722 89.9157L24.4 89.1467C24.4 89.1467 28.312 93.0987 40.793 88.7947C53.274 84.4907 60.277 74.5007 60.277 74.5007C60.277 74.5007 62.546 78.5568 66.993 77.0438C65.663 79.1958 64.437 80.8517 62.937 81.3867C59.142 82.7557 49.569 88.2077 39.84 95.0417C38.627 98.6547 37.714 113.979 38.627 121.556C35.565 122.612 32.643 123.264 29.891 123.616Z" fill="url(#paint1_linear_26_11)"/>
<path d="M35.612 58.9026C31.928 60.2296 27.602 64.1947 25.816 68.3147C26.465 64.0377 33.009 59.0287 33.804 58.5747L35.612 58.9026Z" fill="url(#paint2_linear_26_11)"/>
<path d="M56.823 74.6827C56.823 74.6827 56.21 66.6226 53.236 63.6496C55.44 53.9076 52.78 44.8437 49.832 38.6357C53.197 35.2707 53.992 28.7767 52.571 25.6987C54.358 23.3247 55.401 15.7476 52.988 14.3786C53.744 6.55364 52.297 1.92367 48.436 0.60667C48.566 0.51567 48.723 0.450685 48.866 0.384685C50.861 -0.398315 54.565 -0.815353 55.361 7.88365C56.287 18.0956 54.5 37.2276 54.565 41.8446C54.656 46.8006 54.317 52.9566 56.899 63.4416C59.025 64.2766 60.433 63.6507 60.433 63.6507C60.433 63.6507 64.059 58.6947 69.797 55.9947C75.548 53.2947 85.199 52.8777 85.656 56.4117C85.865 58.0027 85.108 58.9676 83.608 60.0636C86.581 52.6686 71.258 55.7467 70.84 60.6117C61.685 62.6597 59.937 70.1446 59.937 70.1446C59.937 70.1446 58.398 67.8627 56.233 66.9367C56.862 71.6437 56.823 74.6827 56.823 74.6827Z" fill="url(#paint3_linear_26_11)"/>
<path d="M9.46803 120.642C3.35103 117.877 2.28882e-05 114.395 2.28882e-05 114.395C2.28882e-05 114.395 6.58602 99.4097 6.37702 84.3857C3.79502 75.1387 3.66403 62.5277 5.79003 55.4587C7.91603 48.3767 14.319 53.2027 26.057 50.2547C31.156 48.9767 34.221 47.6337 36.334 46.2377C36.686 46.8377 37.143 47.2027 37.729 47.1117C40.52 46.7987 42.724 44.8037 42.985 44.5557C41.733 46.6297 38.668 47.5426 37.208 49.9286C38.434 50.0716 39.842 49.1597 39.999 49.0547C39.908 49.1847 38.382 51.4017 37.169 51.9237C39.217 53.4887 44.472 50.5287 45.894 49.6937C44.629 50.5287 40.586 53.3327 40.143 55.2367C39.608 57.4797 36.961 60.3227 31.301 58.9017C25.876 64.7577 21.754 61.2757 21.754 61.2757C21.754 61.2757 17.007 65.8797 11.634 61.9667C4.08303 68.5527 5.96102 77.4867 12.508 86.7977C2.93402 97.8317 3.89903 109.805 9.46803 120.642Z" fill="url(#paint4_linear_26_11)"/>
<path d="M12.937 60.5066C12.741 60.4546 12.559 60.3896 12.363 60.3236C10.628 59.6846 8.76299 58.4586 7.36799 56.6326C6.19399 55.1456 5.31999 53.2546 5.08599 50.9596C4.86399 48.8856 5.51599 46.9556 6.36399 45.3776C7.58999 43.0956 9.24599 41.5957 9.24599 41.5957C9.24599 41.5957 13.941 40.6826 16.067 41.8046C14.945 57.6116 19.275 58.4976 19.275 58.4976C19.275 59.1106 19.04 59.5936 18.636 59.9716H18.623C17.515 61.0026 15.154 61.1716 12.937 60.5066Z" fill="url(#paint5_linear_26_11)"/>
<path d="M12.937 60.5066C12.741 60.4546 12.559 60.3896 12.363 60.3236C10.628 59.6846 8.76299 58.4586 7.36799 56.6326C10.237 57.2846 13.354 56.7106 12.937 55.4066C12.389 53.6986 14.985 52.2117 13.654 48.1687C12.428 44.4517 11.176 44.6216 6.36399 45.3776C7.58999 43.0956 9.24599 41.5957 9.24599 41.5957C9.24599 41.5957 13.941 40.6826 16.067 41.8046C14.945 57.6116 19.275 58.4976 19.275 58.4976C19.275 59.1106 19.04 59.5936 18.636 59.9716H18.623C17.515 61.0026 15.154 61.1716 12.937 60.5066Z" fill="url(#paint6_linear_26_11)"/>
<path d="M12.937 60.5068C14.15 60.4028 15.793 60.1028 17.071 59.4238C17.501 59.6978 18.114 59.8668 18.623 59.9718C17.515 61.0028 15.154 61.1718 12.937 60.5068Z" fill="url(#paint7_linear_26_11)"/>
<path d="M25.848 61.2757C25.848 61.2757 25.248 61.2237 24.335 61.0667C22.444 60.7407 19.21 59.9187 17.318 58.0277C16.47 57.1927 15.87 55.4327 15.466 53.3327C14.879 50.1637 14.749 46.2117 14.997 43.4997C15.127 42.0777 15.362 41.0087 15.688 40.5527C16.575 38.8047 19.561 36.8097 19.561 36.8097C19.561 36.8097 25.56 36.6797 27.595 37.8527C27.595 37.8527 25.352 48.4167 28.717 53.9067C30.152 56.2407 29.852 57.9107 29.03 59.0707C27.935 60.6497 25.848 61.2757 25.848 61.2757Z" fill="url(#paint8_linear_26_11)"/>
<path d="M25.848 61.2758C25.848 61.2758 25.248 61.2237 24.335 61.0667C22.444 60.7407 19.21 59.9187 17.318 58.0277C16.47 57.1927 15.87 55.4328 15.466 53.3328C18.387 54.2978 22.665 55.0537 24.217 54.2847C26.173 53.3327 24.439 49.7857 24.021 47.4247C23.604 45.0507 25.429 42.3388 22.599 41.0078C19.965 39.7688 19.86 40.4727 14.996 43.4987C15.126 42.0767 15.361 41.0078 15.687 40.5518C16.574 38.8038 19.56 36.8087 19.56 36.8087C19.56 36.8087 25.559 36.6788 27.594 37.8518C27.594 37.8518 25.351 48.4158 28.716 53.9058C30.151 56.2398 29.851 57.9098 29.029 59.0698C27.935 60.6498 25.848 61.2758 25.848 61.2758Z" fill="url(#paint9_linear_26_11)"/>
<path d="M25.848 61.2756C25.848 61.2756 25.248 61.2236 24.335 61.0666C23.787 60.8186 23.2 60.5186 22.6 60.1926C24.895 60.0886 26.226 58.9016 26.226 58.9016C26.226 58.9016 27.478 59.1366 29.03 59.0706C27.935 60.6496 25.848 61.2756 25.848 61.2756Z" fill="url(#paint10_linear_26_11)"/>
<path d="M35.382 58.2247C33.543 58.0947 30.948 57.1157 27.687 53.8557C27.335 53.0077 27.048 52.1218 26.826 51.1948C25.418 45.4698 26.33 38.7267 26.8 36.0797C26.931 35.3627 27.022 34.9448 27.022 34.9448C27.022 34.9448 27.739 32.8188 29.956 31.7628C31.651 31.3188 35.668 31.7628 35.668 31.7628C35.668 31.7628 40.95 35.3747 42.854 39.1447C41.693 42.4307 39.672 44.1527 39.672 44.1527C39.672 44.1527 39.855 47.2177 38.237 50.0867C40.572 52.0167 40.506 55.4597 40.506 55.4597C40.506 55.4597 40.31 55.7078 40.01 56.0598C39.541 56.5948 38.836 57.3508 38.262 57.6638C37.847 57.8988 36.869 58.3417 35.382 58.2247Z" fill="url(#paint11_linear_26_11)"/>
<path d="M35.382 58.2249C34.756 57.9379 34.13 57.5338 33.804 57.0378C35.421 57.0378 37.312 55.6418 37.312 55.6418C37.312 55.6418 38.668 55.9678 40.012 56.0588C39.543 56.5938 38.838 57.3498 38.264 57.6628C37.847 57.8988 36.869 58.3419 35.382 58.2249Z" fill="url(#paint12_linear_26_11)"/>
<path d="M35.382 58.2247C33.543 58.0947 30.948 57.1157 27.687 53.8557C27.335 53.0077 27.048 52.1218 26.826 51.1948C28.365 51.5078 30.282 51.8337 31.547 51.8337C33.973 51.8337 34.886 52.6297 35.616 48.6257C36.333 44.6347 37.051 43.3827 35.838 39.3007C34.703 35.4537 32.017 34.3577 26.8 36.0797C26.931 35.3627 27.022 34.9448 27.022 34.9448C27.022 34.9448 27.739 32.8188 29.956 31.7628C31.651 31.3188 35.668 31.7628 35.668 31.7628C35.668 31.7628 40.95 35.3747 42.854 39.1447C41.693 42.4307 39.672 44.1527 39.672 44.1527C39.672 44.1527 39.855 47.2177 38.237 50.0867C40.572 52.0167 40.506 55.4597 40.506 55.4597C40.506 55.4597 40.31 55.7078 40.01 56.0598C39.541 56.5948 38.836 57.3508 38.262 57.6638C37.847 57.8988 36.869 58.3417 35.382 58.2247Z" fill="url(#paint13_linear_26_11)"/>
<path d="M39.046 94.9117C37.569 95.1347 36.055 95.0628 34.57 94.8488C33.084 94.6248 31.637 94.2097 30.219 93.7297C28.809 93.2247 27.435 92.6288 26.112 91.9368C24.79 91.2448 23.496 90.4957 22.299 89.6047C24.971 90.9137 27.661 92.1307 30.436 93.1147C31.824 93.6017 33.231 94.0227 34.662 94.3577C36.098 94.6667 37.554 94.8647 39.046 94.9117Z" fill="#E08172"/>
<path d="M6.89201 84.9216C7.49801 85.2116 8.057 85.5296 8.659 85.7626C9.254 86.0036 9.84801 86.2326 10.464 86.4026C11.687 86.7786 12.943 87.0146 14.259 87.2156C12.952 87.5286 11.568 87.4036 10.277 87.0276C8.98902 86.6446 7.76601 85.9356 6.89201 84.9216Z" fill="#E08172"/>
<path d="M43.166 61.2757C42.01 61.4417 40.844 61.4187 39.715 61.6837L38.015 61.9957L36.363 62.4887C34.191 63.2117 32.113 64.2347 30.345 65.6837C28.542 67.0857 27.066 68.8837 25.93 70.8707C25.371 71.8687 24.853 72.9027 24.498 73.9987C24.111 75.0807 23.807 76.2057 23.723 77.3677C23.665 75.0227 24.442 72.7247 25.489 70.6307C26.566 68.5347 28.1 66.6687 29.936 65.1767C31.801 63.7167 33.956 62.6487 36.217 62.0117C38.476 61.3117 40.851 61.2407 43.166 61.2757Z" fill="#E08172"/>
<path d="M15.227 57.6076C14.699 58.0476 14.046 58.2517 13.392 58.3307C13.063 58.3597 12.73 58.3637 12.401 58.3027C12.074 58.2477 11.746 58.1656 11.449 57.9826C12.111 57.8216 12.711 57.7537 13.325 57.6827C13.632 57.6577 13.936 57.6227 14.251 57.6137C14.566 57.6017 14.881 57.5756 15.227 57.6076Z" fill="#E08172"/>
<path d="M24.623 56.1707C23.798 56.7207 22.831 56.9857 21.873 57.1187C20.909 57.2277 19.924 57.2237 18.973 56.9427C19.931 56.7117 20.86 56.5997 21.791 56.4717L23.19 56.3107C23.661 56.2647 24.127 56.1947 24.623 56.1707Z" fill="#E08172"/>
<path d="M35.206 52.3318C34.689 53.0788 33.74 53.4258 32.871 53.5078C32.427 53.5418 31.983 53.5288 31.551 53.4418C31.12 53.3588 30.694 53.2418 30.306 53.0188C31.186 52.9408 32.003 52.9368 32.813 52.8588C33.627 52.7908 34.383 52.6568 35.206 52.3318Z" fill="#E08172"/>
<path d="M24.623 39.2827C23.399 39.2717 22.256 39.3988 21.085 39.5748C19.915 39.7388 18.755 39.9588 17.537 40.0938C18.064 39.7718 18.633 39.5488 19.211 39.3538C19.789 39.1558 20.386 39.0228 20.992 38.9298C21.6 38.8538 22.215 38.7998 22.832 38.8548C23.446 38.9068 24.065 39.0177 24.623 39.2827Z" fill="#E08172"/>
<path d="M13.541 43.0606C13.127 43.1246 12.741 43.1326 12.354 43.1746L11.208 43.2766C10.441 43.3306 9.685 43.4096 8.859 43.4046C9.539 42.9196 10.346 42.7066 11.154 42.6276C11.961 42.5676 12.81 42.6616 13.541 43.0606Z" fill="#E08172"/>
<path d="M34.987 34.2568C33.815 34.1658 32.713 34.1548 31.584 34.2208C31.021 34.2418 30.46 34.2918 29.893 34.3258C29.327 34.3748 28.76 34.4148 28.182 34.5068C28.67 34.1578 29.246 33.9848 29.811 33.8308C30.38 33.6768 30.966 33.6058 31.554 33.5688C32.72 33.5228 33.952 33.6728 34.987 34.2568Z" fill="#E08172"/>
<path d="M39.42 38.7207C39.801 39.4957 39.954 40.3277 40.019 41.1597C40.037 41.5777 40.043 41.9967 39.987 42.4147C39.937 42.8317 39.867 43.2506 39.7 43.6526C39.503 42.8156 39.426 42.0137 39.368 41.1997C39.33 40.3857 39.3 39.5757 39.42 38.7207Z" fill="#E08172"/>
<path d="M38.078 50.5208C38.132 50.7488 38.114 50.9548 38.08 51.1558C38.05 51.3598 37.97 51.5447 37.879 51.7247C37.776 51.8977 37.66 52.0687 37.494 52.2017C37.334 52.3347 37.149 52.4668 36.909 52.4868C37.019 52.0528 37.134 51.7368 37.31 51.4088C37.498 51.0958 37.701 50.7858 38.078 50.5208Z" fill="#E08172"/>
<path d="M54.321 14.4138C53.272 15.0708 51.979 15.2518 50.762 15.1998C50.149 15.1578 49.539 15.0778 48.949 14.9128C48.359 14.7538 47.779 14.5558 47.245 14.2468C48.462 14.3518 49.625 14.4918 50.795 14.5488C51.379 14.5868 51.959 14.5768 52.545 14.5758C53.131 14.5578 53.71 14.4868 54.321 14.4138Z" fill="#E08172"/>
<path d="M54.03 25.4436C53.075 25.9126 51.974 26.0086 50.93 25.9146C50.406 25.8546 49.886 25.7646 49.386 25.5976C48.887 25.4356 48.395 25.2406 47.952 24.9436C49.004 25.0316 49.993 25.1756 50.993 25.2656C51.491 25.3276 51.989 25.3446 52.491 25.3886C52.996 25.4256 53.498 25.4146 54.03 25.4436Z" fill="#E08172"/>
<path d="M51.574 38.7207C50.764 39.1397 49.806 39.1327 48.941 38.9767C48.507 38.8817 48.078 38.7627 47.676 38.5757C47.273 38.3937 46.88 38.1867 46.538 37.8887C47.428 37.9937 48.243 38.1817 49.066 38.3377C49.891 38.5057 50.684 38.6337 51.574 38.7207Z" fill="#E08172"/>
<path opacity="0.35" d="M56.402 63.4448C55.895 63.5338 55.447 63.4288 55.02 63.2648C54.812 63.1698 54.605 63.0688 54.423 62.9158C54.241 62.7678 54.055 62.6058 53.946 62.3618C54.449 62.3928 54.859 62.4968 55.271 62.6638C55.673 62.8458 56.065 63.0558 56.402 63.4448Z" fill="#E08172"/>
<path d="M64.81 79.4279C63.996 79.1689 63.201 78.8779 62.445 78.4149C61.692 77.9439 61.09 77.2509 60.628 76.5229L61.203 76.2479C61.422 76.9159 61.673 77.5868 61.918 78.2538C62.184 78.9138 62.45 79.5709 62.854 80.1779C62.264 79.7319 61.849 79.0909 61.492 78.4559C61.12 77.8179 60.841 77.1459 60.593 76.4488C60.534 76.2818 60.621 76.0989 60.787 76.0399C60.928 75.9899 61.081 76.0438 61.161 76.1628L61.168 76.1728C61.625 76.8548 62.123 77.4808 62.754 77.9858C63.377 78.5018 64.128 78.9109 64.81 79.4279Z" fill="#E08172"/>
<path d="M70.179 60.0317C71.204 60.5177 72.053 61.3427 72.673 62.2977C72.978 62.7807 73.229 63.2988 73.393 63.8458C73.56 64.3888 73.675 64.9548 73.634 65.5258C73.186 64.4918 72.701 63.5478 72.123 62.6478C71.839 62.1968 71.531 61.7598 71.206 61.3278C70.887 60.8888 70.523 60.4877 70.179 60.0317Z" fill="#E08172"/>
<defs>
<linearGradient id="paint0_linear_26_11" x1="44.5571" y1="102.051" x2="40.4365" y2="62.3428" gradientUnits="userSpaceOnUse">
<stop offset="0.00047536" stop-color="#F8C5A1"/>
<stop offset="0.7338" stop-color="#F9BA9A"/>
<stop offset="1" stop-color="#FAB597"/>
</linearGradient>
<linearGradient id="paint1_linear_26_11" x1="45.3589" y1="74.5004" x2="45.3589" y2="123.616" gradientUnits="userSpaceOnUse">
<stop offset="0.00047536" stop-color="#F7B08A"/>
<stop offset="0.3919" stop-color="#F1A583"/>
<stop offset="1" stop-color="#E38C72"/>
</linearGradient>
<linearGradient id="paint2_linear_26_11" x1="30.7138" y1="58.575" x2="30.7138" y2="68.3147" gradientUnits="userSpaceOnUse">
<stop offset="0.00047536" stop-color="#F7B08A"/>
<stop offset="0.3919" stop-color="#F1A583"/>
<stop offset="1" stop-color="#E38C72"/>
</linearGradient>
<linearGradient id="paint3_linear_26_11" x1="67.0644" y1="0.00177872" x2="67.0644" y2="74.6829" gradientUnits="userSpaceOnUse">
<stop offset="0.00047536" stop-color="#F7B08A"/>
<stop offset="0.3919" stop-color="#F1A583"/>
<stop offset="1" stop-color="#E38C72"/>
</linearGradient>
<linearGradient id="paint4_linear_26_11" x1="3.51503" y1="101.033" x2="47.7181" y2="4.88487" gradientUnits="userSpaceOnUse">
<stop offset="0.00047536" stop-color="#F7B08A"/>
<stop offset="0.3919" stop-color="#F1A583"/>
<stop offset="1" stop-color="#E38C72"/>
</linearGradient>
<linearGradient id="paint5_linear_26_11" x1="8.38239" y1="53.2489" x2="13.6268" y2="51.0013" gradientUnits="userSpaceOnUse">
<stop offset="0.00047536" stop-color="#F8C5A1"/>
<stop offset="0.7338" stop-color="#F9BA9A"/>
<stop offset="1" stop-color="#FAB597"/>
</linearGradient>
<linearGradient id="paint6_linear_26_11" x1="12.8198" y1="41.2457" x2="12.8198" y2="60.9024" gradientUnits="userSpaceOnUse">
<stop offset="0.00047536" stop-color="#F7B08A"/>
<stop offset="0.3919" stop-color="#F1A583"/>
<stop offset="1" stop-color="#E38C72"/>
</linearGradient>
<linearGradient id="paint7_linear_26_11" x1="17.256" y1="61.5886" x2="14.3425" y2="58.9247" gradientUnits="userSpaceOnUse">
<stop offset="0.00047536" stop-color="#F7B08A"/>
<stop offset="0.3919" stop-color="#F1A583"/>
<stop offset="1" stop-color="#E38C72"/>
</linearGradient>
<linearGradient id="paint8_linear_26_11" x1="17.0968" y1="50.4451" x2="24.0894" y2="48.697" gradientUnits="userSpaceOnUse">
<stop offset="0.00047536" stop-color="#F8C5A1"/>
<stop offset="0.7338" stop-color="#F9BA9A"/>
<stop offset="1" stop-color="#FAB597"/>
</linearGradient>
<linearGradient id="paint9_linear_26_11" x1="22.359" y1="36.8055" x2="22.359" y2="61.2762" gradientUnits="userSpaceOnUse">
<stop offset="0.00047536" stop-color="#F7B08A"/>
<stop offset="0.3919" stop-color="#F1A583"/>
<stop offset="1" stop-color="#E38C72"/>
</linearGradient>
<linearGradient id="paint10_linear_26_11" x1="28.1369" y1="62.0304" x2="23.1005" y2="56.8276" gradientUnits="userSpaceOnUse">
<stop offset="0.00047536" stop-color="#F7B08A"/>
<stop offset="0.3919" stop-color="#F1A583"/>
<stop offset="1" stop-color="#E38C72"/>
</linearGradient>
<linearGradient id="paint11_linear_26_11" x1="29.4077" y1="47.2736" x2="39.0224" y2="42.0292" gradientUnits="userSpaceOnUse">
<stop offset="0.00047536" stop-color="#F8C5A1"/>
<stop offset="0.7338" stop-color="#F9BA9A"/>
<stop offset="1" stop-color="#FAB597"/>
</linearGradient>
<linearGradient id="paint12_linear_26_11" x1="36.9079" y1="55.6421" x2="36.9079" y2="58.2439" gradientUnits="userSpaceOnUse">
<stop offset="0.00047536" stop-color="#F7B08A"/>
<stop offset="0.3919" stop-color="#F1A583"/>
<stop offset="1" stop-color="#E38C72"/>
</linearGradient>
<linearGradient id="paint13_linear_26_11" x1="34.8277" y1="31.5657" x2="34.8277" y2="58.2437" gradientUnits="userSpaceOnUse">
<stop offset="0.00047536" stop-color="#F7B08A"/>
<stop offset="0.3919" stop-color="#F1A583"/>
<stop offset="1" stop-color="#E38C72"/>
</linearGradient>
</defs>
</svg>
