<svg width="83" height="100" viewBox="0 0 83 100" fill="none" xmlns="http://www.w3.org/2000/svg">
<path d="M25.5739 56.6013C29.3949 49.6503 29.1078 41.1203 28.4818 35.9173C27.8558 30.7143 30.1899 29.9963 32.3159 26.2533C34.3109 22.7323 33.4768 20.1623 36.1238 15.3503C36.2798 15.0633 36.4499 14.7503 36.6459 14.4373C38.0809 12.0893 38.8239 9.75531 39.2799 7.70731C39.8669 5.05931 39.9319 2.89531 40.3099 1.73431C40.5319 1.06931 40.9229 0.560315 41.4319 0.260315C42.4489 -0.313685 43.9228 0.012314 45.3438 1.73431C47.3258 4.13431 48.4609 10.2373 47.1049 16.1583C47.0009 16.6013 46.8828 17.0323 46.7528 17.4753C44.8878 23.7743 45.1358 29.8783 45.1358 29.8783C45.1358 29.8783 53.2478 30.4133 57.4078 29.2913C61.5678 28.1693 65.6899 28.0913 68.3109 28.8353C70.9449 29.5923 72.9799 33.5433 72.9799 34.1173C72.9799 34.7043 72.3539 37.2863 72.3539 37.2863C72.3539 37.2863 75.2879 37.8083 75.9799 38.4863C77.5969 41.0683 78.4709 42.9073 77.0229 47.0283C81.1829 47.9803 82.7219 51.6063 80.3099 57.9313C84.2619 62.7303 83.1009 67.4383 77.8319 71.8733C76.1629 73.2953 74.0758 74.6773 71.6108 76.0333C61.3728 81.6543 53.1829 82.3453 46.5709 84.4063C39.9459 86.4673 26.7208 92.8313 17.7228 99.1953C16.0408 98.4783 13.6148 96.5213 11.0978 93.6783C5.62085 87.4963 -0.313144 77.1413 0.0128555 66.4213C5.13786 65.3003 15.7539 63.3833 25.5739 56.6013Z" fill="url(#paint0_linear_26_2)"/>
<path d="M39.2809 7.70827C39.3329 7.44727 39.3849 7.19926 39.4369 6.95126C39.8799 4.65626 39.9719 2.77827 40.3109 1.73427C40.5329 1.06927 40.9239 0.560269 41.4329 0.260269C44.4849 1.64327 42.3589 8.11127 42.3589 8.11127C42.3589 8.11127 42.2029 8.12427 41.9289 8.12427C41.3939 8.11227 40.4149 8.04727 39.2809 7.70827Z" fill="url(#paint1_linear_26_2)"/>
<path d="M25.5739 56.6012C29.3949 49.6502 29.1078 41.1202 28.4818 35.9172C27.8558 30.7142 30.1899 29.9962 32.3159 26.2532C34.3109 22.7322 33.4768 20.1622 36.1238 15.3502C37.8588 15.2332 40.4149 14.1112 40.7669 14.3072C39.5539 14.7892 37.6629 15.6632 36.5409 17.4892C38.3669 16.1852 40.4008 15.5202 40.6488 15.4412C37.8058 17.1362 37.5838 17.9062 35.1838 22.1312C32.7708 26.3832 35.0149 29.7472 40.0099 25.7572C42.6699 23.6312 45.2659 19.5622 47.1049 16.1582C47.0009 16.6012 46.8828 17.0322 46.7528 17.4752C44.8878 23.7742 45.1358 29.8782 45.1358 29.8782C45.1358 29.8782 53.2478 30.4132 57.4078 29.2912C61.5678 28.1692 65.6899 28.0912 68.3109 28.8352C70.9449 29.5922 72.9799 33.5432 72.9799 34.1172C72.9799 34.7042 72.3539 37.2862 72.3539 37.2862C72.3539 37.2862 75.2879 37.8082 75.9799 38.4862C77.5969 41.0682 78.4709 42.9072 77.0229 47.0282C81.1829 47.9802 82.7219 51.6062 80.3099 57.9312C84.2619 62.7302 83.1009 67.4382 77.8319 71.8732C79.6189 68.4952 79.0969 65.9652 78.3539 63.8782C77.4799 61.4262 76.1889 62.0522 77.3109 59.1832C78.4319 56.3012 78.6019 56.7702 75.8889 54.0582C73.1889 51.3582 74.5979 50.7452 76.0979 45.8812C77.5979 41.0162 74.4159 42.7642 69.3549 42.5032C64.3079 42.2552 67.6729 36.6992 68.3639 33.4522C69.0419 30.2052 64.6729 31.1442 58.5569 33.4522C52.4399 35.7602 48.5539 34.2872 45.8019 35.0432C43.0499 35.7862 36.6469 38.5382 34.2339 46.0242C31.8209 53.5232 32.9039 56.3532 41.3289 60.0962C49.7669 63.8392 35.0559 65.5872 35.0559 71.0772C35.0559 76.5812 41.1328 75.2502 38.3948 80.8192C35.7998 86.0752 22.4449 90.9662 11.0989 93.6782C5.62185 87.4962 -0.312137 77.1412 0.0138626 66.4212C5.13786 65.3002 15.7539 63.3832 25.5739 56.6012Z" fill="url(#paint2_linear_26_2)"/>
<path d="M44.2599 30.0223C43.5729 30.1643 42.9449 30.4093 42.3249 30.6773C41.7089 30.9553 41.0979 31.2453 40.4979 31.5663C39.2829 32.1803 38.0989 32.8583 36.8309 33.4563C37.3099 32.9393 37.8559 32.5033 38.4179 32.0893C38.9769 31.6703 39.5799 31.3143 40.1999 30.9873C40.8249 30.6723 41.4709 30.3833 42.1599 30.2073C42.8379 30.0253 43.5599 29.8943 44.2599 30.0223Z" fill="#E08172"/>
<path d="M77.2039 49.4602C76.9239 49.1932 76.7999 48.8212 76.7299 48.4572C76.6939 48.0872 76.6929 47.7032 76.8709 47.3582C76.9639 47.7272 76.9829 48.0682 77.0519 48.4092C77.0829 48.7562 77.1699 49.0802 77.2039 49.4602Z" fill="#E08172"/>
<path d="M80.6279 62.0823C80.6079 61.6283 80.3509 61.2543 80.1439 60.8733C79.9219 60.4963 79.6679 60.1303 79.4209 59.7693L79.3609 59.6813L79.4139 59.5983C79.6789 59.1863 79.9849 58.7893 80.1759 58.3213C80.1439 58.8383 79.9199 59.3213 79.6579 59.7593L79.6509 59.5883C79.9479 59.9413 80.1899 60.3263 80.3939 60.7393C80.5769 61.1473 80.7649 61.6273 80.6279 62.0823Z" fill="#E08172"/>
<path opacity="0.68" d="M39.2809 7.70825C39.3329 7.44725 39.3849 7.19925 39.4369 6.95125C40.1279 6.96425 41.0019 7.23824 41.9279 8.12524C41.3939 8.11224 40.4149 8.04725 39.2809 7.70825Z" fill="#F8917F"/>
<defs>
<linearGradient id="paint0_linear_26_2" x1="82.6624" y1="49.5983" x2="-0.000744762" y2="49.5983" gradientUnits="userSpaceOnUse">
<stop offset="0.00047536" stop-color="#F8C5A1"/>
<stop offset="0.7338" stop-color="#F9BA9A"/>
<stop offset="1" stop-color="#FAB597"/>
</linearGradient>
<linearGradient id="paint1_linear_26_2" x1="42.2811" y1="-0.254631" x2="41.0948" y2="6.55157" gradientUnits="userSpaceOnUse">
<stop offset="0.00047536" stop-color="#F7B08A"/>
<stop offset="0.3919" stop-color="#F1A583"/>
<stop offset="1" stop-color="#E38C72"/>
</linearGradient>
<linearGradient id="paint2_linear_26_2" x1="82.6624" y1="53.9815" x2="-0.000737884" y2="53.9815" gradientUnits="userSpaceOnUse">
<stop offset="0.00047536" stop-color="#F7B08A"/>
<stop offset="0.3919" stop-color="#F1A583"/>
<stop offset="1" stop-color="#E38C72"/>
</linearGradient>
</defs>
</svg>
