<svg width="83" height="100" viewBox="0 0 83 100" fill="none" xmlns="http://www.w3.org/2000/svg">
<path d="M57.0886 42.594C53.2676 49.545 53.5546 58.075 54.1806 63.278C54.8066 68.481 52.4725 69.199 50.3465 72.942C48.3516 76.463 49.1856 79.033 46.5386 83.845C46.3826 84.132 46.2126 84.445 46.0166 84.758C44.5816 87.106 43.8386 89.44 43.3826 91.488C42.7956 94.136 42.7306 96.3 42.3526 97.461C42.1306 98.126 41.7396 98.635 41.2306 98.935C40.2136 99.509 38.7396 99.183 37.3186 97.461C35.3366 95.061 34.2015 88.958 35.5575 83.037C35.6615 82.594 35.7796 82.163 35.9096 81.72C37.7746 75.421 37.5266 69.317 37.5266 69.317C37.5266 69.317 29.4146 68.782 25.2546 69.904C21.0946 71.026 16.9726 71.104 14.3516 70.36C11.7176 69.603 9.68256 65.652 9.68256 65.078C9.68256 64.491 10.3086 61.909 10.3086 61.909C10.3086 61.909 7.37456 61.387 6.68256 60.709C5.06556 58.127 4.19156 56.288 5.63956 52.167C1.47956 51.215 -0.0594389 47.589 2.35256 41.264C-1.59944 36.465 -0.438442 31.757 4.83056 27.322C6.49956 25.9 8.58657 24.518 11.0516 23.162C21.2896 17.541 29.4795 16.85 36.0915 14.789C42.7165 12.728 55.9416 6.364 64.9396 0C66.6216 0.717 69.0476 2.674 71.5646 5.517C77.0416 11.699 82.9756 22.054 82.6496 32.774C77.5246 33.895 66.9086 35.812 57.0886 42.594Z" fill="url(#paint0_linear_6_353)"/>
<path d="M43.3816 91.487C43.3296 91.748 43.2775 91.996 43.2255 92.244C42.7825 94.539 42.6906 96.417 42.3516 97.461C42.1296 98.126 41.7385 98.635 41.2295 98.935C38.1775 97.552 40.3035 91.084 40.3035 91.084C40.3035 91.084 40.4595 91.071 40.7335 91.071C41.2685 91.083 42.2476 91.148 43.3816 91.487Z" fill="url(#paint1_linear_6_353)"/>
<path d="M57.0886 42.594C53.2676 49.545 53.5546 58.075 54.1806 63.278C54.8066 68.481 52.4725 69.199 50.3465 72.942C48.3516 76.463 49.1856 79.033 46.5386 83.845C44.8036 83.962 42.2476 85.084 41.8956 84.888C43.1086 84.406 44.9995 83.532 46.1215 81.706C44.2955 83.01 42.2616 83.675 42.0136 83.754C44.8566 82.059 45.0786 81.289 47.4786 77.064C49.8916 72.812 47.6475 69.448 42.6525 73.438C39.9925 75.564 37.3965 79.633 35.5575 83.037C35.6615 82.594 35.7796 82.163 35.9096 81.72C37.7746 75.421 37.5266 69.317 37.5266 69.317C37.5266 69.317 29.4146 68.782 25.2546 69.904C21.0946 71.026 16.9726 71.104 14.3516 70.36C11.7176 69.603 9.68256 65.652 9.68256 65.078C9.68256 64.491 10.3086 61.909 10.3086 61.909C10.3086 61.909 7.37456 61.387 6.68256 60.709C5.06556 58.127 4.19156 56.288 5.63956 52.167C1.47956 51.215 -0.0594389 47.589 2.35256 41.264C-1.59944 36.465 -0.438442 31.757 4.83056 27.322C3.04356 30.7 3.56555 33.23 4.30855 35.317C5.18255 37.769 6.47355 37.143 5.35155 40.012C4.23055 42.894 4.06055 42.425 6.77355 45.137C9.47355 47.837 8.06455 48.45 6.56455 53.314C5.06455 58.179 8.24655 56.431 13.3075 56.692C18.3545 56.94 14.9895 62.496 14.2985 65.743C13.6205 68.99 17.9896 68.051 24.1056 65.743C30.2226 63.435 34.1086 64.908 36.8606 64.152C39.6126 63.409 46.0155 60.657 48.4286 53.171C50.8416 45.672 49.7585 42.842 41.3335 39.099C32.8955 35.356 47.6066 33.608 47.6066 28.118C47.6066 22.614 41.5296 23.945 44.2676 18.376C46.8626 13.12 60.2176 8.22897 71.5636 5.51697C77.0406 11.699 82.9745 22.054 82.6486 32.774C77.5246 33.895 66.9086 35.812 57.0886 42.594Z" fill="url(#paint2_linear_6_353)"/>
<path d="M38.4025 69.173C39.0895 69.031 39.7175 68.786 40.3375 68.518C40.9535 68.24 41.5645 67.95 42.1645 67.629C43.3795 67.015 44.5636 66.337 45.8316 65.739C45.3526 66.256 44.8066 66.692 44.2446 67.106C43.6856 67.525 43.0825 67.881 42.4625 68.208C41.8375 68.523 41.1915 68.812 40.5025 68.988C39.8245 69.17 39.1025 69.301 38.4025 69.173Z" fill="#E08172"/>
<path d="M5.45856 49.735C5.73856 50.002 5.86256 50.374 5.93256 50.738C5.96856 51.108 5.96955 51.492 5.79155 51.837C5.69855 51.468 5.67955 51.127 5.61055 50.786C5.57955 50.439 5.49256 50.115 5.45856 49.735Z" fill="#E08172"/>
<path d="M2.03454 37.113C2.05454 37.567 2.31155 37.941 2.51855 38.322C2.74055 38.699 2.99454 39.065 3.24154 39.426L3.30154 39.514L3.24855 39.597C2.98355 40.009 2.67755 40.406 2.48655 40.874C2.51855 40.357 2.74255 39.874 3.00454 39.436L3.01155 39.607C2.71455 39.254 2.47255 38.869 2.26855 38.456C2.08555 38.048 1.89754 37.568 2.03454 37.113Z" fill="#E08172"/>
<path opacity="0.68" d="M43.3815 91.4869C43.3295 91.7479 43.2775 91.9959 43.2255 92.2439C42.5345 92.2309 41.6605 91.9569 40.7345 91.0699C41.2685 91.0829 42.2475 91.1479 43.3815 91.4869Z" fill="#F8917F"/>
<defs>
<linearGradient id="paint0_linear_6_353" x1="5.98946e-05" y1="49.597" x2="82.6632" y2="49.597" gradientUnits="userSpaceOnUse">
<stop offset="0.00047536" stop-color="#F8C5A1"/>
<stop offset="0.7338" stop-color="#F9BA9A"/>
<stop offset="1" stop-color="#FAB597"/>
</linearGradient>
<linearGradient id="paint1_linear_6_353" x1="40.3813" y1="99.4499" x2="41.5676" y2="92.6437" gradientUnits="userSpaceOnUse">
<stop offset="0.00047536" stop-color="#F7B08A"/>
<stop offset="0.3919" stop-color="#F1A583"/>
<stop offset="1" stop-color="#E38C72"/>
</linearGradient>
<linearGradient id="paint2_linear_6_353" x1="5.98946e-05" y1="45.2137" x2="82.6632" y2="45.2137" gradientUnits="userSpaceOnUse">
<stop offset="0.00047536" stop-color="#F7B08A"/>
<stop offset="0.3919" stop-color="#F1A583"/>
<stop offset="1" stop-color="#E38C72"/>
</linearGradient>
</defs>
</svg>
