<svg width="89" height="108" viewBox="0 0 89 108" fill="none" xmlns="http://www.w3.org/2000/svg">
    <path d="M88.0673 87.1617C86.9583 89.2357 85.7983 91.1007 84.5723 92.7697C79.8773 99.2257 74.5303 102.786 69.8613 104.729C63.0923 107.559 57.7193 107.024 57.7193 107.024C57.7193 107.024 51.2243 92.2867 45.3553 86.4177C38.6123 84.2267 29.1313 77.2367 24.8143 70.3107C20.5103 63.3727 28.1273 66.1247 29.1313 58.1947C29.3793 56.1737 29.4443 54.3997 29.3793 52.8347C29.1703 48.2827 27.8663 45.5317 27.1233 43.7317C26.1323 41.3187 21.5543 37.6147 19.5073 35.9847C17.4733 34.3677 9.67427 27.1427 6.19127 23.6737C3.96127 21.4307 1.4183 18.7567 0.427298 16.3447C-0.120702 15.0017 -0.198698 13.7367 0.531302 12.6797C2.5793 9.7187 5.73532 10.9317 7.90032 12.6797C10.0653 14.4267 18.5943 20.7527 23.1723 25.8387C27.7503 30.9117 32.0803 32.7377 32.0803 32.7377L32.3803 30.3637C32.3803 30.3637 32.2503 29.4117 28.9243 22.4997C25.5853 15.5877 20.0173 10.5927 18.5953 5.19371C18.1913 3.62871 18.2173 2.36371 18.5953 1.47671C19.5083 -0.71429 22.4813 -0.636302 25.9643 2.8587C30.8813 7.7627 37.5583 19.7347 41.1843 25.4727C44.7973 31.2237 51.1743 39.3357 60.4733 39.5837C61.1903 39.3097 61.3083 38.1877 61.3083 38.1877C58.6213 29.2277 61.0863 20.9077 65.2993 17.3997C65.4033 17.3087 65.5213 17.2167 65.6383 17.1257C70.0463 13.7997 72.6673 13.2137 71.0893 24.4807C69.6413 34.7577 73.9583 38.5917 75.1453 42.7127C74.8973 49.3897 74.3363 60.0717 70.6463 68.6787C70.6433 68.6817 78.8203 80.4187 88.0673 87.1617Z" fill="url(#paint0_linear_6_361)"/>
    <path d="M88.0673 87.1617C86.9583 89.2357 85.7983 91.1007 84.5723 92.7697C83.5553 89.9007 81.5333 84.7357 79.2773 82.4797C76.0823 79.2717 71.7913 75.2807 59.9233 76.5717C66.9263 71.9547 67.5393 67.9117 69.5873 62.5387C71.6213 57.1787 71.5043 54.6357 71.8693 47.0587C72.2473 39.4817 69.0913 31.3307 67.7093 29.2047C66.3403 27.0787 70.0833 23.9617 70.0833 20.2187C70.0833 17.0497 68.8053 16.2667 65.2973 17.4017C65.4013 17.3107 65.5193 17.2187 65.6363 17.1277C70.0443 13.8017 72.6653 13.2157 71.0873 24.4827C69.6393 34.7597 73.9563 38.5937 75.1433 42.7147C74.8953 49.3917 74.3343 60.0737 70.6443 68.6807C70.6443 68.6807 78.8203 80.4187 88.0673 87.1617Z" fill="url(#paint1_linear_6_361)"/>
    <path d="M69.8603 104.729C63.0913 107.559 57.7183 107.024 57.7183 107.024C57.7183 107.024 51.2233 92.2867 45.3543 86.4177C38.6113 84.2267 29.1303 77.2367 24.8133 70.3107C20.5093 63.3727 28.1263 66.1247 29.1303 58.1947C29.3783 56.1737 29.4433 54.3997 29.3783 52.8347C30.5523 52.6517 31.4253 52.4047 31.8173 52.0787C33.8913 50.3307 34.4653 47.8007 35.7433 43.3147C34.5433 48.0357 34.8693 50.8267 34.8693 50.8267L35.6513 49.5747L35.4293 53.3827C35.4293 53.3827 39.3813 55.6777 39.7723 57.1907C40.1503 58.7167 38.7423 61.1557 37.3993 61.9377C36.0563 62.7197 35.0913 62.3417 34.3343 64.8457C33.5913 67.3367 29.4433 68.5237 29.4433 68.5237C29.4433 68.5237 29.6523 75.5137 37.5553 79.3227C45.4583 83.1307 52.4753 82.1657 52.4753 82.1657C52.4753 82.1657 51.5363 88.7907 55.0963 95.6507C57.9793 101.208 62.6613 103.907 69.8603 104.729Z" fill="url(#paint2_linear_6_361)"/>
    <path d="M33.5913 60.3217C33.5913 65.1867 30.5004 68.3037 25.2834 69.0207C24.2534 68.8897 23.3143 68.6037 22.4533 68.2117C20.7323 67.4027 19.3754 66.1637 18.3714 64.9387C17.2364 63.5567 16.5583 62.2127 16.3233 61.5347C15.7623 59.9697 16.9234 58.1307 17.3534 57.4397C17.7964 56.7617 18.6964 55.1057 20.5744 54.5057C20.5764 54.5047 29.3273 60.8307 33.5913 60.3217Z" fill="url(#paint3_linear_6_361)"/>
    <path d="M60.4703 39.5857C60.4703 39.5857 59.7143 41.2287 58.3053 41.3987C56.8833 41.5687 53.3103 40.0297 49.3983 38.6467C45.4853 37.2777 44.0253 32.7387 41.6123 29.3347C39.1993 25.9177 38.9123 28.0827 37.6213 22.9177C36.3303 17.7537 34.3343 19.9707 34.3343 17.7137C34.3343 15.4707 31.2043 12.8097 29.6263 11.8057C28.0483 10.8017 26.3003 10.4367 26.3003 6.4717C26.3003 2.97671 22.5573 0.19871 18.5923 1.47671C19.5053 -0.71429 22.4783 -0.636302 25.9613 2.8587C30.8783 7.7627 37.5553 19.7347 41.1813 25.4727C44.7943 31.2257 51.1723 39.3377 60.4703 39.5857Z" fill="url(#paint4_linear_6_361)"/>
    <path d="M32.0793 32.7387C32.0793 32.7387 31.0883 37.8637 29.9143 35.0737C28.7533 32.2827 23.1323 30.7437 22.8853 28.7487C22.6373 26.7537 19.4293 23.9237 16.5213 23.1667C13.6003 22.4237 12.3613 20.6757 11.3963 18.0547C10.4443 15.4337 6.68832 12.8117 4.36632 12.8117C2.35832 12.8117 0.675298 13.3857 0.427298 16.3457C-0.120702 15.0027 -0.198698 13.7377 0.531302 12.6807C2.5793 9.71974 5.73532 10.9327 7.90032 12.6807C10.0653 14.4277 18.5943 20.7537 23.1723 25.8397C27.7493 30.9127 32.0793 32.7387 32.0793 32.7387Z" fill="url(#paint5_linear_6_361)"/>
    <path d="M33.5913 60.3217C33.5913 65.1867 30.5004 68.3038 25.2834 69.0208C24.2534 68.8898 23.3143 68.6037 22.4533 68.2117C25.2183 66.8427 27.9964 64.4817 27.9964 62.9297C27.9964 60.9867 24.9703 60.1258 22.4273 59.2518C20.2103 58.4958 18.5674 60.2558 18.3714 64.9378C17.2364 63.5558 16.5583 62.2118 16.3233 61.5338C15.7623 59.9688 16.9234 58.1298 17.3534 57.4388C17.7964 56.7608 18.6964 55.1048 20.5744 54.5048C20.5764 54.5048 29.3273 60.8307 33.5913 60.3217Z" fill="url(#paint6_linear_6_361)"/>
    <path d="M39.6433 58.2218C39.3303 59.0958 38.5213 59.9168 37.4003 60.5428C35.8353 61.4298 33.6963 61.9118 31.5963 61.5338C30.7613 61.3778 29.7833 61.0378 28.7533 60.5818C25.3103 59.0558 21.2673 56.2908 20.3283 55.3518C19.7153 54.7388 19.2853 53.5648 19.0633 52.3518C18.8283 51.1388 18.7893 49.9128 18.9853 49.2348C19.3503 47.8918 21.6983 45.2698 21.6983 45.2698C21.6983 45.2698 24.5023 43.9008 28.0623 43.9008C31.5313 46.0528 30.8403 49.1438 30.8403 49.1438C30.8403 49.1438 34.9353 50.3567 34.9353 52.5737C38.0523 52.8607 39.3953 53.9297 39.8393 55.1817C40.1913 56.1877 39.9823 57.2958 39.6433 58.2218Z" fill="url(#paint7_linear_6_361)"/>
    <path d="M39.6433 58.2217C39.3303 59.0957 38.5213 59.9167 37.4003 60.5427C35.8353 61.4297 33.6963 61.9117 31.5963 61.5337C30.7613 61.3777 29.7833 61.0377 28.7533 60.5817C31.2573 59.4987 33.8783 57.4257 33.8783 55.1827C33.8783 52.4047 29.3923 53.2657 28.6743 50.7227C27.9443 48.1797 27.1743 47.6447 24.8793 47.4367C22.7663 47.2407 21.2533 47.2017 19.0623 52.3537C18.8273 51.1407 18.7883 49.9147 18.9843 49.2367C19.3493 47.8937 21.6973 45.2717 21.6973 45.2717C21.6973 45.2717 24.5013 43.9027 28.0613 43.9027C31.5303 46.0547 30.8393 49.1457 30.8393 49.1457C30.8393 49.1457 34.9343 50.3587 34.9343 52.5757C38.0513 52.8627 39.3943 53.9317 39.8383 55.1837C40.1913 56.1877 39.9823 57.2957 39.6433 58.2217Z" fill="url(#paint8_linear_6_361)"/>
    <path d="M39.6433 58.2217C39.3303 59.0957 38.5213 59.9167 37.4003 60.5427C39.0043 58.5347 38.6133 56.1607 38.6133 56.1607C38.6133 56.1607 39.3303 55.8997 39.8393 55.1827C40.1913 56.1877 39.9823 57.2957 39.6433 58.2217Z" fill="url(#paint9_linear_6_361)"/>
    <path d="M47.1703 53.8958C47.6693 52.2738 48.9653 51.0208 50.6043 50.5778C46.7913 57.0868 47.0833 65.2128 51.3533 71.4308C43.8583 64.9098 42.3923 53.8278 47.9353 45.5828C47.0833 48.2668 46.8223 51.1018 47.1703 53.8958Z" fill="url(#paint10_linear_6_361)"/>
    <path d="M61.2603 29.3298C61.5233 29.1198 61.8073 28.9428 62.0863 28.7488C62.3833 28.5948 62.6803 28.4308 62.9873 28.2898C63.6053 28.0148 64.2603 27.8098 64.9363 27.6998C65.6123 27.6008 66.3063 27.5648 66.9853 27.6798C67.6583 27.7928 68.3373 27.9938 68.8763 28.4138C68.2273 28.2438 67.5833 28.1858 66.9433 28.1798C66.3033 28.1868 65.6683 28.2368 65.0393 28.3428C64.4053 28.4288 63.7873 28.6058 63.1553 28.7598L61.2603 29.3298Z" fill="#E08172"/>
    <path d="M33.6223 29.3298C34.8203 28.9248 35.9883 28.6018 37.0823 28.1088C37.6353 27.8798 38.1613 27.6008 38.6643 27.2818C39.1603 26.9548 39.6333 26.5778 40.0203 26.0828C39.8723 26.7108 39.4433 27.2418 38.9723 27.6778C38.4983 28.1238 37.9283 28.4478 37.3423 28.7068C36.7533 28.9638 36.1353 29.1338 35.5113 29.2418L34.5693 29.3468C34.2513 29.3408 33.9383 29.3558 33.6223 29.3298Z" fill="#E08172"/>
    <path d="M29.6273 20.2137C30.5283 19.7057 31.3903 19.2717 32.1943 18.7367C32.9983 18.2037 33.7403 17.6157 34.4143 16.8417C34.3193 17.3597 34.0373 17.8197 33.7153 18.2297C33.3933 18.6467 32.9833 18.9837 32.5533 19.2797C32.1113 19.5597 31.6433 19.7947 31.1473 19.9457C30.6533 20.1057 30.1453 20.2047 29.6273 20.2137Z" fill="#E08172"/>
    <path d="M24.7983 12.6807C25.3213 11.9687 26.0223 11.4487 26.7553 11.0147C27.5013 10.6017 28.2933 10.2577 29.1683 10.1417C28.5073 10.7227 27.7983 11.1567 27.0793 11.5807C26.7123 11.7797 26.3543 11.9897 25.9713 12.1657C25.5923 12.3467 25.2183 12.5357 24.7983 12.6807Z" fill="#E08172"/>
    <path d="M9.93933 24.7927C10.4653 24.4937 10.9863 24.2477 11.4583 23.9227C11.9363 23.6137 12.3823 23.2687 12.7953 22.8897C13.6333 22.1377 14.3223 21.2417 14.9333 20.2137C14.8833 20.8197 14.6603 21.3967 14.3683 21.9317C14.0813 22.4717 13.6873 22.9557 13.2333 23.3707C12.3243 24.1957 11.1393 24.7267 9.93933 24.7927Z" fill="#E08172"/>
    <path d="M19.5963 33.4917C19.9663 33.0407 20.3553 32.6457 20.6993 32.2077C21.0463 31.7767 21.3893 31.3487 21.7023 30.8967C22.3523 30.0077 22.9183 29.0717 23.5083 28.0807C23.4683 28.6637 23.2933 29.2217 23.0763 29.7577C22.8643 30.2987 22.5673 30.8017 22.2323 31.2767C21.5533 32.2157 20.6573 33.0257 19.5963 33.4917Z" fill="#E08172"/>
    <path d="M29.6273 38.1947C29.7673 37.7637 29.9523 37.3787 30.1143 36.9827L30.6193 35.8207C30.9693 35.0517 31.2963 34.2867 31.7083 33.4917C31.7643 33.9427 31.7063 34.3877 31.6203 34.8217C31.5393 35.2597 31.3903 35.6787 31.2143 36.0847C30.8463 36.8877 30.3393 37.6437 29.6273 38.1947Z" fill="#E08172"/>
    <path d="M20.7613 53.5327C20.6793 52.5227 21.0053 51.4877 21.5733 50.6377C21.8623 50.2147 22.1983 49.8217 22.6023 49.5077C22.9983 49.1897 23.4333 48.9117 23.9253 48.7677C23.2413 49.5067 22.6293 50.2137 22.1153 51.0017C21.8483 51.3867 21.6164 51.7937 21.3924 52.2117C21.1584 52.6287 20.9893 53.0757 20.7613 53.5327Z" fill="#E08172"/>
    <path d="M33.5913 60.3217C33.8703 59.9277 34.1703 59.5897 34.4303 59.2207C34.6933 58.8567 34.9463 58.4948 35.1763 58.1178C35.6503 57.3678 36.0443 56.5857 36.4343 55.7188C36.5043 56.1987 36.4293 56.6808 36.3063 57.1438C36.1873 57.6108 35.9823 58.0518 35.7293 58.4628C35.2143 59.2718 34.4803 59.9627 33.5913 60.3217Z" fill="#E08172"/>
    <path d="M26.6713 67.6217C27.0083 67.2487 27.3383 66.9177 27.6303 66.5497C27.9133 66.1757 28.2083 65.8197 28.4653 65.4297C29.0053 64.6657 29.4853 63.8667 30.0423 63.0427C30.0153 63.5457 29.8733 64.0237 29.6973 64.4877C29.5253 64.9547 29.2773 65.3887 28.9993 65.8037C28.4273 66.6107 27.6363 67.3327 26.6713 67.6217Z" fill="#E08172"/>
    <path d="M17.6813 62.0447C17.6173 61.0757 17.9093 60.1337 18.2913 59.2747C18.7023 58.4237 19.2103 57.6147 19.9293 56.9667C19.6433 57.8857 19.2603 58.7137 18.8823 59.5477C18.4883 60.3777 18.1143 61.1867 17.6813 62.0447Z" fill="#E08172"/>
    <path d="M46.4213 85.9777L48.2223 85.0577C48.8073 84.7367 49.4013 84.4417 49.9783 84.1097C51.1493 83.4757 52.2933 82.8027 53.5073 82.1697C53.0633 82.6967 52.5433 83.1417 52.0043 83.5607C51.4683 83.9847 50.8863 84.3447 50.2913 84.6807C49.0943 85.3277 47.7893 85.8357 46.4213 85.9777Z" fill="#E08172"/>
    <path d="M70.0523 69.5887C69.5933 70.6347 68.8393 71.5397 68.0163 72.3317C67.1903 73.1307 66.2573 73.8067 65.2923 74.4177C63.3443 75.6127 61.2183 76.5157 59.0023 77.0177C61.0483 76.0327 63.0553 75.0497 64.9483 73.8637C66.8313 72.6777 68.6663 71.3857 70.0523 69.5887Z" fill="#E08172"/>
    <defs>
    <linearGradient id="paint0_linear_6_361" x1="63.8904" y1="61.0348" x2="38.5423" y2="51.0454" gradientUnits="userSpaceOnUse">
    <stop offset="0.00047536" stop-color="#F8C5A1"/>
    <stop offset="0.7338" stop-color="#F9BA9A"/>
    <stop offset="1" stop-color="#FAB597"/>
    </linearGradient>
    <linearGradient id="paint1_linear_6_361" x1="59.923" y1="53.8959" x2="88.067" y2="53.8959" gradientUnits="userSpaceOnUse">
    <stop offset="0.00047536" stop-color="#F7B08A"/>
    <stop offset="0.3919" stop-color="#F1A583"/>
    <stop offset="1" stop-color="#E38C72"/>
    </linearGradient>
    <linearGradient id="paint2_linear_6_361" x1="23.5075" y1="75.1897" x2="69.8608" y2="75.1897" gradientUnits="userSpaceOnUse">
    <stop offset="0.00047536" stop-color="#F7B08A"/>
    <stop offset="0.3919" stop-color="#F1A583"/>
    <stop offset="1" stop-color="#E38C72"/>
    </linearGradient>
    <linearGradient id="paint3_linear_6_361" x1="22.5979" y1="65.5183" x2="24.5958" y2="61.689" gradientUnits="userSpaceOnUse">
    <stop offset="0.00047536" stop-color="#F8C5A1"/>
    <stop offset="0.7338" stop-color="#F9BA9A"/>
    <stop offset="1" stop-color="#FAB597"/>
    </linearGradient>
    <linearGradient id="paint4_linear_6_361" x1="18.5938" y1="20.7059" x2="60.4707" y2="20.7059" gradientUnits="userSpaceOnUse">
    <stop offset="0.00047536" stop-color="#F7B08A"/>
    <stop offset="0.3919" stop-color="#F1A583"/>
    <stop offset="1" stop-color="#E38C72"/>
    </linearGradient>
    <linearGradient id="paint5_linear_6_361" x1="-0.000500366" y1="23.3956" x2="32.0789" y2="23.3956" gradientUnits="userSpaceOnUse">
    <stop offset="0.00047536" stop-color="#F7B08A"/>
    <stop offset="0.3919" stop-color="#F1A583"/>
    <stop offset="1" stop-color="#E38C72"/>
    </linearGradient>
    <linearGradient id="paint6_linear_6_361" x1="16.1744" y1="61.7629" x2="33.5918" y2="61.7629" gradientUnits="userSpaceOnUse">
    <stop offset="0.00047536" stop-color="#F7B08A"/>
    <stop offset="0.3919" stop-color="#F1A583"/>
    <stop offset="1" stop-color="#E38C72"/>
    </linearGradient>
    <linearGradient id="paint7_linear_6_361" x1="32.1315" y1="54.9105" x2="25.9714" y2="50.9148" gradientUnits="userSpaceOnUse">
    <stop offset="0.00047536" stop-color="#F8C5A1"/>
    <stop offset="0.7338" stop-color="#F9BA9A"/>
    <stop offset="1" stop-color="#FAB597"/>
    </linearGradient>
    <linearGradient id="paint8_linear_6_361" x1="18.8597" y1="52.7833" x2="40.0212" y2="52.7833" gradientUnits="userSpaceOnUse">
    <stop offset="0.00047536" stop-color="#F7B08A"/>
    <stop offset="0.3919" stop-color="#F1A583"/>
    <stop offset="1" stop-color="#E38C72"/>
    </linearGradient>
    <linearGradient id="paint9_linear_6_361" x1="39.7959" y1="57.9566" x2="37.1738" y2="57.7485" gradientUnits="userSpaceOnUse">
    <stop offset="0.00047536" stop-color="#F7B08A"/>
    <stop offset="0.3919" stop-color="#F1A583"/>
    <stop offset="1" stop-color="#E38C72"/>
    </linearGradient>
    <linearGradient id="paint10_linear_6_361" x1="47.079" y1="52.64" x2="51.0748" y2="69.0394" gradientUnits="userSpaceOnUse">
    <stop offset="0.00047536" stop-color="#F7B08A"/>
    <stop offset="0.3919" stop-color="#F1A583"/>
    <stop offset="1" stop-color="#E38C72"/>
    </linearGradient>
    </defs>
</svg>
